<svg xmlns="http://www.w3.org/2000/svg" width="820" height="380" viewBox="0 0 820 380" font-family="ui-monospace,Menlo,monospace">
<rect width="100%" height="100%" fill="#fbfbfd"/>
<text x="18" y="26" font-size="16" font-weight="700" fill="#111">The control spectra — count the zeros</text>
<text x="18" y="46" font-size="11" fill="#555">Same patch, same solver, same threshold. CTRL-BLIND drops 4 eigenvalues into the floor; CTRL-CLEAN drops exactly 1.</text>
<rect x="70" y="74" width="730" height="260" fill="#fff" stroke="#ccc"/>
<line x1="70" y1="334.0" x2="800.0" y2="334.0" stroke="#eee"/><text x="64.0" y="337.0" font-size="9" fill="#888" text-anchor="end">1e-17</text><line x1="70" y1="319.9" x2="800.0" y2="319.9" stroke="#eee"/><text x="64.0" y="322.9" font-size="9" fill="#888" text-anchor="end">1e-16</text><line x1="70" y1="305.7" x2="800.0" y2="305.7" stroke="#eee"/><text x="64.0" y="308.7" font-size="9" fill="#888" text-anchor="end">1e-15</text><line x1="70" y1="291.6" x2="800.0" y2="291.6" stroke="#eee"/><text x="64.0" y="294.6" font-size="9" fill="#888" text-anchor="end">1e-14</text><line x1="70" y1="277.4" x2="800.0" y2="277.4" stroke="#eee"/><text x="64.0" y="280.4" font-size="9" fill="#888" text-anchor="end">1e-13</text><line x1="70" y1="263.3" x2="800.0" y2="263.3" stroke="#eee"/><text x="64.0" y="266.3" font-size="9" fill="#888" text-anchor="end">1e-12</text><line x1="70" y1="249.1" x2="800.0" y2="249.1" stroke="#eee"/><text x="64.0" y="252.1" font-size="9" fill="#888" text-anchor="end">1e-11</text><line x1="70" y1="235.0" x2="800.0" y2="235.0" stroke="#eee"/><text x="64.0" y="238.0" font-size="9" fill="#888" text-anchor="end">1e-10</text><line x1="70" y1="220.8" x2="800.0" y2="220.8" stroke="#eee"/><text x="64.0" y="223.8" font-size="9" fill="#888" text-anchor="end">1e-9</text><line x1="70" y1="206.7" x2="800.0" y2="206.7" stroke="#eee"/><text x="64.0" y="209.7" font-size="9" fill="#888" text-anchor="end">1e-8</text><line x1="70" y1="192.5" x2="800.0" y2="192.5" stroke="#eee"/><text x="64.0" y="195.5" font-size="9" fill="#888" text-anchor="end">1e-7</text><line x1="70" y1="178.4" x2="800.0" y2="178.4" stroke="#eee"/><text x="64.0" y="181.4" font-size="9" fill="#888" text-anchor="end">1e-6</text><line x1="70" y1="164.3" x2="800.0" y2="164.3" stroke="#eee"/><text x="64.0" y="167.3" font-size="9" fill="#888" text-anchor="end">1e-5</text><line x1="70" y1="150.1" x2="800.0" y2="150.1" stroke="#eee"/><text x="64.0" y="153.1" font-size="9" fill="#888" text-anchor="end">1e-4</text><line x1="70" y1="136.0" x2="800.0" y2="136.0" stroke="#eee"/><text x="64.0" y="139.0" font-size="9" fill="#888" text-anchor="end">1e-3</text><line x1="70" y1="121.8" x2="800.0" y2="121.8" stroke="#eee"/><text x="64.0" y="124.8" font-size="9" fill="#888" text-anchor="end">1e-2</text><line x1="70" y1="107.7" x2="800.0" y2="107.7" stroke="#eee"/><text x="64.0" y="110.7" font-size="9" fill="#888" text-anchor="end">1e-1</text><line x1="70" y1="93.5" x2="800.0" y2="93.5" stroke="#eee"/><text x="64.0" y="96.5" font-size="9" fill="#888" text-anchor="end">1e0</text><line x1="70" y1="79.4" x2="800.0" y2="79.4" stroke="#eee"/><text x="64.0" y="82.4" font-size="9" fill="#888" text-anchor="end">1e1</text><circle cx="75.7" cy="322.7" r="2.6" fill="#c0392b" opacity="0.85"/><circle cx="87.1" cy="322.7" r="2.6" fill="#c0392b" opacity="0.85"/><circle cx="98.5" cy="322.7" r="2.6" fill="#c0392b" opacity="0.85"/><circle cx="109.9" cy="322.7" r="2.6" fill="#c0392b" opacity="0.85"/><circle cx="121.3" cy="97.8" r="2.6" fill="#c0392b" opacity="0.85"/><circle cx="132.7" cy="97.8" r="2.6" fill="#c0392b" opacity="0.85"/><circle cx="144.1" cy="97.8" r="2.6" fill="#c0392b" opacity="0.85"/><circle cx="155.5" cy="97.8" r="2.6" fill="#c0392b" opacity="0.85"/><circle cx="167.0" cy="97.8" r="2.6" fill="#c0392b" opacity="0.85"/><circle cx="178.4" cy="97.8" r="2.6" fill="#c0392b" opacity="0.85"/><circle cx="189.8" cy="97.8" r="2.6" fill="#c0392b" opacity="0.85"/><circle cx="201.2" cy="97.8" r="2.6" fill="#c0392b" opacity="0.85"/><circle cx="212.6" cy="97.8" r="2.6" fill="#c0392b" opacity="0.85"/><circle cx="224.0" cy="97.8" r="2.6" fill="#c0392b" opacity="0.85"/><circle cx="235.4" cy="97.8" r="2.6" fill="#c0392b" opacity="0.85"/><circle cx="246.8" cy="97.8" r="2.6" fill="#c0392b" opacity="0.85"/><circle cx="258.2" cy="97.8" r="2.6" fill="#c0392b" opacity="0.85"/><circle cx="269.6" cy="97.8" r="2.6" fill="#c0392b" opacity="0.85"/><circle cx="281.0" cy="97.8" r="2.6" fill="#c0392b" opacity="0.85"/><circle cx="292.4" cy="97.8" r="2.6" fill="#c0392b" opacity="0.85"/><circle cx="303.8" cy="93.5" r="2.6" fill="#c0392b" opacity="0.85"/><circle cx="315.2" cy="93.5" r="2.6" fill="#c0392b" opacity="0.85"/><circle cx="326.6" cy="93.5" r="2.6" fill="#c0392b" opacity="0.85"/><circle cx="338.0" cy="93.5" r="2.6" fill="#c0392b" opacity="0.85"/><circle cx="349.5" cy="93.5" r="2.6" fill="#c0392b" opacity="0.85"/><circle cx="360.9" cy="93.5" r="2.6" fill="#c0392b" opacity="0.85"/><circle cx="372.3" cy="93.5" r="2.6" fill="#c0392b" opacity="0.85"/><circle cx="383.7" cy="93.5" r="2.6" fill="#c0392b" opacity="0.85"/><circle cx="395.1" cy="93.5" r="2.6" fill="#c0392b" opacity="0.85"/><circle cx="406.5" cy="93.5" r="2.6" fill="#c0392b" opacity="0.85"/><circle cx="417.9" cy="93.5" r="2.6" fill="#c0392b" opacity="0.85"/><circle cx="429.3" cy="93.5" r="2.6" fill="#c0392b" opacity="0.85"/><circle cx="440.7" cy="93.5" r="2.6" fill="#c0392b" opacity="0.85"/><circle cx="452.1" cy="93.5" r="2.6" fill="#c0392b" opacity="0.85"/><circle cx="463.5" cy="93.5" r="2.6" fill="#c0392b" opacity="0.85"/><circle cx="474.9" cy="93.5" r="2.6" fill="#c0392b" opacity="0.85"/><circle cx="486.3" cy="93.5" r="2.6" fill="#c0392b" opacity="0.85"/><circle cx="497.7" cy="93.5" r="2.6" fill="#c0392b" opacity="0.85"/><circle cx="509.1" cy="93.5" r="2.6" fill="#c0392b" opacity="0.85"/><circle cx="520.5" cy="93.5" r="2.6" fill="#c0392b" opacity="0.85"/><circle cx="532.0" cy="93.5" r="2.6" fill="#c0392b" opacity="0.85"/><circle cx="543.4" cy="93.5" r="2.6" fill="#c0392b" opacity="0.85"/><circle cx="554.8" cy="93.5" r="2.6" fill="#c0392b" opacity="0.85"/><circle cx="566.2" cy="93.5" r="2.6" fill="#c0392b" opacity="0.85"/><circle cx="577.6" cy="91.0" r="2.6" fill="#c0392b" opacity="0.85"/><circle cx="589.0" cy="91.0" r="2.6" fill="#c0392b" opacity="0.85"/><circle cx="600.4" cy="91.0" r="2.6" fill="#c0392b" opacity="0.85"/><circle cx="611.8" cy="91.0" r="2.6" fill="#c0392b" opacity="0.85"/><circle cx="623.2" cy="91.0" r="2.6" fill="#c0392b" opacity="0.85"/><circle cx="634.6" cy="91.0" r="2.6" fill="#c0392b" opacity="0.85"/><circle cx="646.0" cy="91.0" r="2.6" fill="#c0392b" opacity="0.85"/><circle cx="657.4" cy="91.0" r="2.6" fill="#c0392b" opacity="0.85"/><circle cx="668.8" cy="91.0" r="2.6" fill="#c0392b" opacity="0.85"/><circle cx="680.2" cy="91.0" r="2.6" fill="#c0392b" opacity="0.85"/><circle cx="691.6" cy="91.0" r="2.6" fill="#c0392b" opacity="0.85"/><circle cx="703.0" cy="91.0" r="2.6" fill="#c0392b" opacity="0.85"/><circle cx="714.5" cy="91.0" r="2.6" fill="#c0392b" opacity="0.85"/><circle cx="725.9" cy="91.0" r="2.6" fill="#c0392b" opacity="0.85"/><circle cx="737.3" cy="91.0" r="2.6" fill="#c0392b" opacity="0.85"/><circle cx="748.7" cy="91.0" r="2.6" fill="#c0392b" opacity="0.85"/><circle cx="760.1" cy="89.3" r="2.6" fill="#c0392b" opacity="0.85"/><circle cx="771.5" cy="89.3" r="2.6" fill="#c0392b" opacity="0.85"/><circle cx="782.9" cy="89.3" r="2.6" fill="#c0392b" opacity="0.85"/><circle cx="794.3" cy="89.3" r="2.6" fill="#c0392b" opacity="0.85"/><circle cx="250.0" cy="62.0" r="4" fill="#c0392b"/><text x="259.0" y="66.0" font-size="10" fill="#333">CTRL-BLIND (collocated, 2Δ)</text><circle cx="75.7" cy="320.4" r="2.6" fill="#2471a3" opacity="0.85"/><circle cx="87.1" cy="96.8" r="2.6" fill="#2471a3" opacity="0.85"/><circle cx="98.5" cy="96.8" r="2.6" fill="#2471a3" opacity="0.85"/><circle cx="109.9" cy="96.8" r="2.6" fill="#2471a3" opacity="0.85"/><circle cx="121.3" cy="96.8" r="2.6" fill="#2471a3" opacity="0.85"/><circle cx="132.7" cy="92.6" r="2.6" fill="#2471a3" opacity="0.85"/><circle cx="144.1" cy="92.6" r="2.6" fill="#2471a3" opacity="0.85"/><circle cx="155.5" cy="92.6" r="2.6" fill="#2471a3" opacity="0.85"/><circle cx="167.0" cy="92.6" r="2.6" fill="#2471a3" opacity="0.85"/><circle cx="178.4" cy="89.3" r="2.6" fill="#2471a3" opacity="0.85"/><circle cx="189.8" cy="89.3" r="2.6" fill="#2471a3" opacity="0.85"/><circle cx="201.2" cy="89.3" r="2.6" fill="#2471a3" opacity="0.85"/><circle cx="212.6" cy="89.3" r="2.6" fill="#2471a3" opacity="0.85"/><circle cx="224.0" cy="87.7" r="2.6" fill="#2471a3" opacity="0.85"/><circle cx="235.4" cy="87.7" r="2.6" fill="#2471a3" opacity="0.85"/><circle cx="246.8" cy="87.7" r="2.6" fill="#2471a3" opacity="0.85"/><circle cx="258.2" cy="87.7" r="2.6" fill="#2471a3" opacity="0.85"/><circle cx="269.6" cy="87.7" r="2.6" fill="#2471a3" opacity="0.85"/><circle cx="281.0" cy="87.7" r="2.6" fill="#2471a3" opacity="0.85"/><circle cx="292.4" cy="87.7" r="2.6" fill="#2471a3" opacity="0.85"/><circle cx="303.8" cy="87.7" r="2.6" fill="#2471a3" opacity="0.85"/><circle cx="315.2" cy="86.0" r="2.6" fill="#2471a3" opacity="0.85"/><circle cx="326.6" cy="86.0" r="2.6" fill="#2471a3" opacity="0.85"/><circle cx="338.0" cy="86.0" r="2.6" fill="#2471a3" opacity="0.85"/><circle cx="349.5" cy="86.0" r="2.6" fill="#2471a3" opacity="0.85"/><circle cx="360.9" cy="85.0" r="2.6" fill="#2471a3" opacity="0.85"/><circle cx="372.3" cy="85.0" r="2.6" fill="#2471a3" opacity="0.85"/><circle cx="383.7" cy="85.0" r="2.6" fill="#2471a3" opacity="0.85"/><circle cx="395.1" cy="85.0" r="2.6" fill="#2471a3" opacity="0.85"/><circle cx="406.5" cy="85.0" r="2.6" fill="#2471a3" opacity="0.85"/><circle cx="417.9" cy="85.0" r="2.6" fill="#2471a3" opacity="0.85"/><circle cx="429.3" cy="85.0" r="2.6" fill="#2471a3" opacity="0.85"/><circle cx="440.7" cy="85.0" r="2.6" fill="#2471a3" opacity="0.85"/><circle cx="452.1" cy="85.0" r="2.6" fill="#2471a3" opacity="0.85"/><circle cx="463.5" cy="85.0" r="2.6" fill="#2471a3" opacity="0.85"/><circle cx="474.9" cy="85.0" r="2.6" fill="#2471a3" opacity="0.85"/><circle cx="486.3" cy="85.0" r="2.6" fill="#2471a3" opacity="0.85"/><circle cx="497.7" cy="85.0" r="2.6" fill="#2471a3" opacity="0.85"/><circle cx="509.1" cy="85.0" r="2.6" fill="#2471a3" opacity="0.85"/><circle cx="520.5" cy="84.2" r="2.6" fill="#2471a3" opacity="0.85"/><circle cx="532.0" cy="84.2" r="2.6" fill="#2471a3" opacity="0.85"/><circle cx="543.4" cy="84.2" r="2.6" fill="#2471a3" opacity="0.85"/><circle cx="554.8" cy="84.2" r="2.6" fill="#2471a3" opacity="0.85"/><circle cx="566.2" cy="83.1" r="2.6" fill="#2471a3" opacity="0.85"/><circle cx="577.6" cy="83.1" r="2.6" fill="#2471a3" opacity="0.85"/><circle cx="589.0" cy="83.1" r="2.6" fill="#2471a3" opacity="0.85"/><circle cx="600.4" cy="83.1" r="2.6" fill="#2471a3" opacity="0.85"/><circle cx="611.8" cy="83.1" r="2.6" fill="#2471a3" opacity="0.85"/><circle cx="623.2" cy="83.1" r="2.6" fill="#2471a3" opacity="0.85"/><circle cx="634.6" cy="83.1" r="2.6" fill="#2471a3" opacity="0.85"/><circle cx="646.0" cy="83.1" r="2.6" fill="#2471a3" opacity="0.85"/><circle cx="657.4" cy="82.5" r="2.6" fill="#2471a3" opacity="0.85"/><circle cx="668.8" cy="82.5" r="2.6" fill="#2471a3" opacity="0.85"/><circle cx="680.2" cy="82.5" r="2.6" fill="#2471a3" opacity="0.85"/><circle cx="691.6" cy="82.5" r="2.6" fill="#2471a3" opacity="0.85"/><circle cx="703.0" cy="81.7" r="2.6" fill="#2471a3" opacity="0.85"/><circle cx="714.5" cy="81.7" r="2.6" fill="#2471a3" opacity="0.85"/><circle cx="725.9" cy="81.7" r="2.6" fill="#2471a3" opacity="0.85"/><circle cx="737.3" cy="81.7" r="2.6" fill="#2471a3" opacity="0.85"/><circle cx="748.7" cy="81.2" r="2.6" fill="#2471a3" opacity="0.85"/><circle cx="760.1" cy="81.2" r="2.6" fill="#2471a3" opacity="0.85"/><circle cx="771.5" cy="81.2" r="2.6" fill="#2471a3" opacity="0.85"/><circle cx="782.9" cy="81.2" r="2.6" fill="#2471a3" opacity="0.85"/><circle cx="794.3" cy="80.7" r="2.6" fill="#2471a3" opacity="0.85"/><circle cx="440.0" cy="62.0" r="4" fill="#2471a3"/><text x="449.0" y="66.0" font-size="10" fill="#333">CTRL-CLEAN (compact, Δ)</text><text x="435.0" y="366.0" font-size="10" fill="#777" text-anchor="middle">eigenvalue index (ascending |λ|)</text>
<text x="16" y="204.0" font-size="10" fill="#777" transform="rotate(-90 16 204.0)" text-anchor="middle">|λ|  (log)</text>
</svg>
