<svg xmlns="http://www.w3.org/2000/svg" width="880" height="322" viewBox="0 0 880 322" font-family="ui-monospace,Menlo,monospace">
<rect width="100%" height="100%" fill="#fbfbfd"/>
<text x="20" y="27" font-size="16" font-weight="700" fill="#111">CTRL-CLEAN — the compact 5-point Laplacian has exactly ONE null mode</text>
<text x="20" y="47" font-size="11" fill="#555">The negative control. The only zero is the constant (a legitimate rigid mode). Lowest 4 eigenvectors shown: the rest are</text><text x="20" y="62" font-size="11" fill="#555">ordinary Fourier modes with real eigenvalues.</text><rect x="20.0" y="86.0" width="24.0" height="24.0" fill="rgb(255,60,60)" stroke="#e6e6ee" stroke-width="0.4"/><rect x="44.0" y="86.0" width="24.0" height="24.0" fill="rgb(255,60,60)" stroke="#e6e6ee" stroke-width="0.4"/><rect x="68.0" y="86.0" width="24.0" height="24.0" fill="rgb(255,60,60)" stroke="#e6e6ee" stroke-width="0.4"/><rect x="92.0" y="86.0" width="24.0" height="24.0" fill="rgb(255,60,60)" stroke="#e6e6ee" stroke-width="0.4"/><rect x="116.0" y="86.0" width="24.0" height="24.0" fill="rgb(255,60,60)" stroke="#e6e6ee" stroke-width="0.4"/><rect x="140.0" y="86.0" width="24.0" height="24.0" fill="rgb(255,60,60)" stroke="#e6e6ee" stroke-width="0.4"/><rect x="164.0" y="86.0" width="24.0" height="24.0" fill="rgb(255,60,60)" stroke="#e6e6ee" stroke-width="0.4"/><rect x="188.0" y="86.0" width="24.0" height="24.0" fill="rgb(255,60,60)" stroke="#e6e6ee" stroke-width="0.4"/><rect x="20.0" y="110.0" width="24.0" height="24.0" fill="rgb(255,60,60)" stroke="#e6e6ee" stroke-width="0.4"/><rect x="44.0" y="110.0" width="24.0" height="24.0" fill="rgb(255,60,60)" stroke="#e6e6ee" stroke-width="0.4"/><rect x="68.0" y="110.0" width="24.0" height="24.0" fill="rgb(255,60,60)" stroke="#e6e6ee" stroke-width="0.4"/><rect x="92.0" y="110.0" width="24.0" height="24.0" fill="rgb(255,60,60)" stroke="#e6e6ee" stroke-width="0.4"/><rect x="116.0" y="110.0" width="24.0" height="24.0" fill="rgb(255,60,60)" stroke="#e6e6ee" stroke-width="0.4"/><rect x="140.0" y="110.0" width="24.0" height="24.0" fill="rgb(255,60,60)" stroke="#e6e6ee" stroke-width="0.4"/><rect x="164.0" y="110.0" width="24.0" height="24.0" fill="rgb(255,60,60)" stroke="#e6e6ee" stroke-width="0.4"/><rect x="188.0" y="110.0" width="24.0" height="24.0" fill="rgb(255,60,60)" stroke="#e6e6ee" stroke-width="0.4"/><rect x="20.0" y="134.0" width="24.0" height="24.0" fill="rgb(255,60,60)" stroke="#e6e6ee" stroke-width="0.4"/><rect x="44.0" y="134.0" width="24.0" height="24.0" fill="rgb(255,60,60)" stroke="#e6e6ee" stroke-width="0.4"/><rect x="68.0" y="134.0" width="24.0" height="24.0" fill="rgb(255,60,60)" stroke="#e6e6ee" stroke-width="0.4"/><rect x="92.0" y="134.0" width="24.0" height="24.0" fill="rgb(255,60,60)" stroke="#e6e6ee" stroke-width="0.4"/><rect x="116.0" y="134.0" width="24.0" height="24.0" fill="rgb(255,60,60)" stroke="#e6e6ee" stroke-width="0.4"/><rect x="140.0" y="134.0" width="24.0" height="24.0" fill="rgb(255,60,60)" stroke="#e6e6ee" stroke-width="0.4"/><rect x="164.0" y="134.0" width="24.0" height="24.0" fill="rgb(255,60,60)" stroke="#e6e6ee" stroke-width="0.4"/><rect x="188.0" y="134.0" width="24.0" height="24.0" fill="rgb(255,60,60)" stroke="#e6e6ee" stroke-width="0.4"/><rect x="20.0" y="158.0" width="24.0" height="24.0" fill="rgb(255,60,60)" stroke="#e6e6ee" stroke-width="0.4"/><rect x="44.0" y="158.0" width="24.0" height="24.0" fill="rgb(255,60,60)" stroke="#e6e6ee" stroke-width="0.4"/><rect x="68.0" y="158.0" width="24.0" height="24.0" fill="rgb(255,60,60)" stroke="#e6e6ee" stroke-width="0.4"/><rect x="92.0" y="158.0" width="24.0" height="24.0" fill="rgb(255,60,60)" stroke="#e6e6ee" stroke-width="0.4"/><rect x="116.0" y="158.0" width="24.0" height="24.0" fill="rgb(255,60,60)" stroke="#e6e6ee" stroke-width="0.4"/><rect x="140.0" y="158.0" width="24.0" height="24.0" fill="rgb(255,60,60)" stroke="#e6e6ee" stroke-width="0.4"/><rect x="164.0" y="158.0" width="24.0" height="24.0" fill="rgb(255,60,60)" stroke="#e6e6ee" stroke-width="0.4"/><rect x="188.0" y="158.0" width="24.0" height="24.0" fill="rgb(255,60,60)" stroke="#e6e6ee" stroke-width="0.4"/><rect x="20.0" y="182.0" width="24.0" height="24.0" fill="rgb(255,60,60)" stroke="#e6e6ee" stroke-width="0.4"/><rect x="44.0" y="182.0" width="24.0" height="24.0" fill="rgb(255,60,60)" stroke="#e6e6ee" stroke-width="0.4"/><rect x="68.0" y="182.0" width="24.0" height="24.0" fill="rgb(255,60,60)" stroke="#e6e6ee" stroke-width="0.4"/><rect x="92.0" y="182.0" width="24.0" height="24.0" fill="rgb(255,60,60)" stroke="#e6e6ee" stroke-width="0.4"/><rect x="116.0" y="182.0" width="24.0" height="24.0" fill="rgb(255,60,60)" stroke="#e6e6ee" stroke-width="0.4"/><rect x="140.0" y="182.0" width="24.0" height="24.0" fill="rgb(255,60,60)" stroke="#e6e6ee" stroke-width="0.4"/><rect x="164.0" y="182.0" width="24.0" height="24.0" fill="rgb(255,60,60)" stroke="#e6e6ee" stroke-width="0.4"/><rect x="188.0" y="182.0" width="24.0" height="24.0" fill="rgb(255,60,60)" stroke="#e6e6ee" stroke-width="0.4"/><rect x="20.0" y="206.0" width="24.0" height="24.0" fill="rgb(255,60,60)" stroke="#e6e6ee" stroke-width="0.4"/><rect x="44.0" y="206.0" width="24.0" height="24.0" fill="rgb(255,60,60)" stroke="#e6e6ee" stroke-width="0.4"/><rect x="68.0" y="206.0" width="24.0" height="24.0" fill="rgb(255,60,60)" stroke="#e6e6ee" stroke-width="0.4"/><rect x="92.0" y="206.0" width="24.0" height="24.0" fill="rgb(255,60,60)" stroke="#e6e6ee" stroke-width="0.4"/><rect x="116.0" y="206.0" width="24.0" height="24.0" fill="rgb(255,60,60)" stroke="#e6e6ee" stroke-width="0.4"/><rect x="140.0" y="206.0" width="24.0" height="24.0" fill="rgb(255,60,60)" stroke="#e6e6ee" stroke-width="0.4"/><rect x="164.0" y="206.0" width="24.0" height="24.0" fill="rgb(255,60,60)" stroke="#e6e6ee" stroke-width="0.4"/><rect x="188.0" y="206.0" width="24.0" height="24.0" fill="rgb(255,60,60)" stroke="#e6e6ee" stroke-width="0.4"/><rect x="20.0" y="230.0" width="24.0" height="24.0" fill="rgb(255,60,60)" stroke="#e6e6ee" stroke-width="0.4"/><rect x="44.0" y="230.0" width="24.0" height="24.0" fill="rgb(255,60,60)" stroke="#e6e6ee" stroke-width="0.4"/><rect x="68.0" y="230.0" width="24.0" height="24.0" fill="rgb(255,60,60)" stroke="#e6e6ee" stroke-width="0.4"/><rect x="92.0" y="230.0" width="24.0" height="24.0" fill="rgb(255,60,60)" stroke="#e6e6ee" stroke-width="0.4"/><rect x="116.0" y="230.0" width="24.0" height="24.0" fill="rgb(255,60,60)" stroke="#e6e6ee" stroke-width="0.4"/><rect x="140.0" y="230.0" width="24.0" height="24.0" fill="rgb(255,60,60)" stroke="#e6e6ee" stroke-width="0.4"/><rect x="164.0" y="230.0" width="24.0" height="24.0" fill="rgb(255,60,60)" stroke="#e6e6ee" stroke-width="0.4"/><rect x="188.0" y="230.0" width="24.0" height="24.0" fill="rgb(255,60,60)" stroke="#e6e6ee" stroke-width="0.4"/><rect x="20.0" y="254.0" width="24.0" height="24.0" fill="rgb(255,60,60)" stroke="#e6e6ee" stroke-width="0.4"/><rect x="44.0" y="254.0" width="24.0" height="24.0" fill="rgb(255,60,60)" stroke="#e6e6ee" stroke-width="0.4"/><rect x="68.0" y="254.0" width="24.0" height="24.0" fill="rgb(255,60,60)" stroke="#e6e6ee" stroke-width="0.4"/><rect x="92.0" y="254.0" width="24.0" height="24.0" fill="rgb(255,60,60)" stroke="#e6e6ee" stroke-width="0.4"/><rect x="116.0" y="254.0" width="24.0" height="24.0" fill="rgb(255,60,60)" stroke="#e6e6ee" stroke-width="0.4"/><rect x="140.0" y="254.0" width="24.0" height="24.0" fill="rgb(255,60,60)" stroke="#e6e6ee" stroke-width="0.4"/><rect x="164.0" y="254.0" width="24.0" height="24.0" fill="rgb(255,60,60)" stroke="#e6e6ee" stroke-width="0.4"/><rect x="188.0" y="254.0" width="24.0" height="24.0" fill="rgb(255,60,60)" stroke="#e6e6ee" stroke-width="0.4"/><rect x="20.0" y="86.0" width="192.0" height="192.0" fill="none" stroke="#333" stroke-width="1"/><text x="20.0" y="294.0" font-size="11" font-weight="600" fill="#222">mode 0 (λ = -0.000)</text><text x="20.0" y="308.0" font-size="10" fill="#777">peak |v| = 1.250e-1</text><rect x="232.0" y="86.0" width="24.0" height="24.0" fill="rgb(255,112,112)" stroke="#e6e6ee" stroke-width="0.4"/><rect x="256.0" y="86.0" width="24.0" height="24.0" fill="rgb(255,100,100)" stroke="#e6e6ee" stroke-width="0.4"/><rect x="280.0" y="86.0" width="24.0" height="24.0" fill="rgb(255,102,102)" stroke="#e6e6ee" stroke-width="0.4"/><rect x="304.0" y="86.0" width="24.0" height="24.0" fill="rgb(255,115,115)" stroke="#e6e6ee" stroke-width="0.4"/><rect x="328.0" y="86.0" width="24.0" height="24.0" fill="rgb(255,133,133)" stroke="#e6e6ee" stroke-width="0.4"/><rect x="352.0" y="86.0" width="24.0" height="24.0" fill="rgb(255,145,145)" stroke="#e6e6ee" stroke-width="0.4"/><rect x="376.0" y="86.0" width="24.0" height="24.0" fill="rgb(255,143,143)" stroke="#e6e6ee" stroke-width="0.4"/><rect x="400.0" y="86.0" width="24.0" height="24.0" fill="rgb(255,130,130)" stroke="#e6e6ee" stroke-width="0.4"/><rect x="232.0" y="110.0" width="24.0" height="24.0" fill="rgb(255,231,231)" stroke="#e6e6ee" stroke-width="0.4"/><rect x="256.0" y="110.0" width="24.0" height="24.0" fill="rgb(255,219,219)" stroke="#e6e6ee" stroke-width="0.4"/><rect x="280.0" y="110.0" width="24.0" height="24.0" fill="rgb(255,220,220)" stroke="#e6e6ee" stroke-width="0.4"/><rect x="304.0" y="110.0" width="24.0" height="24.0" fill="rgb(255,233,233)" stroke="#e6e6ee" stroke-width="0.4"/><rect x="328.0" y="110.0" width="24.0" height="24.0" fill="rgb(255,251,251)" stroke="#e6e6ee" stroke-width="0.4"/><rect x="352.0" y="110.0" width="24.0" height="24.0" fill="rgb(245,247,252)" stroke="#e6e6ee" stroke-width="0.4"/><rect x="376.0" y="110.0" width="24.0" height="24.0" fill="rgb(247,248,252)" stroke="#e6e6ee" stroke-width="0.4"/><rect x="400.0" y="110.0" width="24.0" height="24.0" fill="rgb(255,248,248)" stroke="#e6e6ee" stroke-width="0.4"/><rect x="232.0" y="134.0" width="24.0" height="24.0" fill="rgb(142,168,220)" stroke="#e6e6ee" stroke-width="0.4"/><rect x="256.0" y="134.0" width="24.0" height="24.0" fill="rgb(155,178,224)" stroke="#e6e6ee" stroke-width="0.4"/><rect x="280.0" y="134.0" width="24.0" height="24.0" fill="rgb(153,177,224)" stroke="#e6e6ee" stroke-width="0.4"/><rect x="304.0" y="134.0" width="24.0" height="24.0" fill="rgb(139,166,219)" stroke="#e6e6ee" stroke-width="0.4"/><rect x="328.0" y="134.0" width="24.0" height="24.0" fill="rgb(119,151,214)" stroke="#e6e6ee" stroke-width="0.4"/><rect x="352.0" y="134.0" width="24.0" height="24.0" fill="rgb(106,141,210)" stroke="#e6e6ee" stroke-width="0.4"/><rect x="376.0" y="134.0" width="24.0" height="24.0" fill="rgb(107,142,210)" stroke="#e6e6ee" stroke-width="0.4"/><rect x="400.0" y="134.0" width="24.0" height="24.0" fill="rgb(122,153,214)" stroke="#e6e6ee" stroke-width="0.4"/><rect x="232.0" y="158.0" width="24.0" height="24.0" fill="rgb(75,117,200)" stroke="#e6e6ee" stroke-width="0.4"/><rect x="256.0" y="158.0" width="24.0" height="24.0" fill="rgb(88,127,204)" stroke="#e6e6ee" stroke-width="0.4"/><rect x="280.0" y="158.0" width="24.0" height="24.0" fill="rgb(87,126,204)" stroke="#e6e6ee" stroke-width="0.4"/><rect x="304.0" y="158.0" width="24.0" height="24.0" fill="rgb(72,115,199)" stroke="#e6e6ee" stroke-width="0.4"/><rect x="328.0" y="158.0" width="24.0" height="24.0" fill="rgb(52,99,193)" stroke="#e6e6ee" stroke-width="0.4"/><rect x="352.0" y="158.0" width="24.0" height="24.0" fill="rgb(40,90,190)" stroke="#e6e6ee" stroke-width="0.4"/><rect x="376.0" y="158.0" width="24.0" height="24.0" fill="rgb(41,90,190)" stroke="#e6e6ee" stroke-width="0.4"/><rect x="400.0" y="158.0" width="24.0" height="24.0" fill="rgb(56,102,194)" stroke="#e6e6ee" stroke-width="0.4"/><rect x="232.0" y="182.0" width="24.0" height="24.0" fill="rgb(120,152,214)" stroke="#e6e6ee" stroke-width="0.4"/><rect x="256.0" y="182.0" width="24.0" height="24.0" fill="rgb(133,161,218)" stroke="#e6e6ee" stroke-width="0.4"/><rect x="280.0" y="182.0" width="24.0" height="24.0" fill="rgb(132,161,217)" stroke="#e6e6ee" stroke-width="0.4"/><rect x="304.0" y="182.0" width="24.0" height="24.0" fill="rgb(117,149,213)" stroke="#e6e6ee" stroke-width="0.4"/><rect x="328.0" y="182.0" width="24.0" height="24.0" fill="rgb(98,134,207)" stroke="#e6e6ee" stroke-width="0.4"/><rect x="352.0" y="182.0" width="24.0" height="24.0" fill="rgb(85,124,203)" stroke="#e6e6ee" stroke-width="0.4"/><rect x="376.0" y="182.0" width="24.0" height="24.0" fill="rgb(86,125,204)" stroke="#e6e6ee" stroke-width="0.4"/><rect x="400.0" y="182.0" width="24.0" height="24.0" fill="rgb(101,136,208)" stroke="#e6e6ee" stroke-width="0.4"/><rect x="232.0" y="206.0" width="24.0" height="24.0" fill="rgb(251,252,253)" stroke="#e6e6ee" stroke-width="0.4"/><rect x="256.0" y="206.0" width="24.0" height="24.0" fill="rgb(255,246,246)" stroke="#e6e6ee" stroke-width="0.4"/><rect x="280.0" y="206.0" width="24.0" height="24.0" fill="rgb(255,247,247)" stroke="#e6e6ee" stroke-width="0.4"/><rect x="304.0" y="206.0" width="24.0" height="24.0" fill="rgb(248,249,252)" stroke="#e6e6ee" stroke-width="0.4"/><rect x="328.0" y="206.0" width="24.0" height="24.0" fill="rgb(228,234,247)" stroke="#e6e6ee" stroke-width="0.4"/><rect x="352.0" y="206.0" width="24.0" height="24.0" fill="rgb(215,224,243)" stroke="#e6e6ee" stroke-width="0.4"/><rect x="376.0" y="206.0" width="24.0" height="24.0" fill="rgb(216,225,243)" stroke="#e6e6ee" stroke-width="0.4"/><rect x="400.0" y="206.0" width="24.0" height="24.0" fill="rgb(231,237,247)" stroke="#e6e6ee" stroke-width="0.4"/><rect x="232.0" y="230.0" width="24.0" height="24.0" fill="rgb(255,132,132)" stroke="#e6e6ee" stroke-width="0.4"/><rect x="256.0" y="230.0" width="24.0" height="24.0" fill="rgb(255,120,120)" stroke="#e6e6ee" stroke-width="0.4"/><rect x="280.0" y="230.0" width="24.0" height="24.0" fill="rgb(255,121,121)" stroke="#e6e6ee" stroke-width="0.4"/><rect x="304.0" y="230.0" width="24.0" height="24.0" fill="rgb(255,134,134)" stroke="#e6e6ee" stroke-width="0.4"/><rect x="328.0" y="230.0" width="24.0" height="24.0" fill="rgb(255,152,152)" stroke="#e6e6ee" stroke-width="0.4"/><rect x="352.0" y="230.0" width="24.0" height="24.0" fill="rgb(255,164,164)" stroke="#e6e6ee" stroke-width="0.4"/><rect x="376.0" y="230.0" width="24.0" height="24.0" fill="rgb(255,163,163)" stroke="#e6e6ee" stroke-width="0.4"/><rect x="400.0" y="230.0" width="24.0" height="24.0" fill="rgb(255,149,149)" stroke="#e6e6ee" stroke-width="0.4"/><rect x="232.0" y="254.0" width="24.0" height="24.0" fill="rgb(255,71,71)" stroke="#e6e6ee" stroke-width="0.4"/><rect x="256.0" y="254.0" width="24.0" height="24.0" fill="rgb(255,60,60)" stroke="#e6e6ee" stroke-width="0.4"/><rect x="280.0" y="254.0" width="24.0" height="24.0" fill="rgb(255,61,61)" stroke="#e6e6ee" stroke-width="0.4"/><rect x="304.0" y="254.0" width="24.0" height="24.0" fill="rgb(255,74,74)" stroke="#e6e6ee" stroke-width="0.4"/><rect x="328.0" y="254.0" width="24.0" height="24.0" fill="rgb(255,92,92)" stroke="#e6e6ee" stroke-width="0.4"/><rect x="352.0" y="254.0" width="24.0" height="24.0" fill="rgb(255,104,104)" stroke="#e6e6ee" stroke-width="0.4"/><rect x="376.0" y="254.0" width="24.0" height="24.0" fill="rgb(255,102,102)" stroke="#e6e6ee" stroke-width="0.4"/><rect x="400.0" y="254.0" width="24.0" height="24.0" fill="rgb(255,89,89)" stroke="#e6e6ee" stroke-width="0.4"/><rect x="232.0" y="86.0" width="192.0" height="192.0" fill="none" stroke="#333" stroke-width="1"/><text x="232.0" y="294.0" font-size="11" font-weight="600" fill="#222">mode 1 (λ = -0.586)</text><text x="232.0" y="308.0" font-size="10" fill="#777">peak |v| = 1.969e-1</text><rect x="444.0" y="86.0" width="24.0" height="24.0" fill="rgb(86,125,204)" stroke="#e6e6ee" stroke-width="0.4"/><rect x="468.0" y="86.0" width="24.0" height="24.0" fill="rgb(169,189,229)" stroke="#e6e6ee" stroke-width="0.4"/><rect x="492.0" y="86.0" width="24.0" height="24.0" fill="rgb(255,242,242)" stroke="#e6e6ee" stroke-width="0.4"/><rect x="516.0" y="86.0" width="24.0" height="24.0" fill="rgb(255,190,190)" stroke="#e6e6ee" stroke-width="0.4"/><rect x="540.0" y="86.0" width="24.0" height="24.0" fill="rgb(255,206,206)" stroke="#e6e6ee" stroke-width="0.4"/><rect x="564.0" y="86.0" width="24.0" height="24.0" fill="rgb(225,232,246)" stroke="#e6e6ee" stroke-width="0.4"/><rect x="588.0" y="86.0" width="24.0" height="24.0" fill="rgb(126,156,216)" stroke="#e6e6ee" stroke-width="0.4"/><rect x="612.0" y="86.0" width="24.0" height="24.0" fill="rgb(68,112,198)" stroke="#e6e6ee" stroke-width="0.4"/><rect x="444.0" y="110.0" width="24.0" height="24.0" fill="rgb(57,103,195)" stroke="#e6e6ee" stroke-width="0.4"/><rect x="468.0" y="110.0" width="24.0" height="24.0" fill="rgb(140,167,220)" stroke="#e6e6ee" stroke-width="0.4"/><rect x="492.0" y="110.0" width="24.0" height="24.0" fill="rgb(239,243,250)" stroke="#e6e6ee" stroke-width="0.4"/><rect x="516.0" y="110.0" width="24.0" height="24.0" fill="rgb(255,216,216)" stroke="#e6e6ee" stroke-width="0.4"/><rect x="540.0" y="110.0" width="24.0" height="24.0" fill="rgb(255,232,232)" stroke="#e6e6ee" stroke-width="0.4"/><rect x="564.0" y="110.0" width="24.0" height="24.0" fill="rgb(196,210,237)" stroke="#e6e6ee" stroke-width="0.4"/><rect x="588.0" y="110.0" width="24.0" height="24.0" fill="rgb(97,134,207)" stroke="#e6e6ee" stroke-width="0.4"/><rect x="612.0" y="110.0" width="24.0" height="24.0" fill="rgb(40,90,190)" stroke="#e6e6ee" stroke-width="0.4"/><rect x="444.0" y="134.0" width="24.0" height="24.0" fill="rgb(79,120,201)" stroke="#e6e6ee" stroke-width="0.4"/><rect x="468.0" y="134.0" width="24.0" height="24.0" fill="rgb(162,183,226)" stroke="#e6e6ee" stroke-width="0.4"/><rect x="492.0" y="134.0" width="24.0" height="24.0" fill="rgb(255,249,249)" stroke="#e6e6ee" stroke-width="0.4"/><rect x="516.0" y="134.0" width="24.0" height="24.0" fill="rgb(255,196,196)" stroke="#e6e6ee" stroke-width="0.4"/><rect x="540.0" y="134.0" width="24.0" height="24.0" fill="rgb(255,212,212)" stroke="#e6e6ee" stroke-width="0.4"/><rect x="564.0" y="134.0" width="24.0" height="24.0" fill="rgb(218,227,244)" stroke="#e6e6ee" stroke-width="0.4"/><rect x="588.0" y="134.0" width="24.0" height="24.0" fill="rgb(119,150,214)" stroke="#e6e6ee" stroke-width="0.4"/><rect x="612.0" y="134.0" width="24.0" height="24.0" fill="rgb(61,106,196)" stroke="#e6e6ee" stroke-width="0.4"/><rect x="444.0" y="158.0" width="24.0" height="24.0" fill="rgb(139,166,220)" stroke="#e6e6ee" stroke-width="0.4"/><rect x="468.0" y="158.0" width="24.0" height="24.0" fill="rgb(221,229,245)" stroke="#e6e6ee" stroke-width="0.4"/><rect x="492.0" y="158.0" width="24.0" height="24.0" fill="rgb(255,194,194)" stroke="#e6e6ee" stroke-width="0.4"/><rect x="516.0" y="158.0" width="24.0" height="24.0" fill="rgb(255,142,142)" stroke="#e6e6ee" stroke-width="0.4"/><rect x="540.0" y="158.0" width="24.0" height="24.0" fill="rgb(255,158,158)" stroke="#e6e6ee" stroke-width="0.4"/><rect x="564.0" y="158.0" width="24.0" height="24.0" fill="rgb(255,233,233)" stroke="#e6e6ee" stroke-width="0.4"/><rect x="588.0" y="158.0" width="24.0" height="24.0" fill="rgb(179,196,232)" stroke="#e6e6ee" stroke-width="0.4"/><rect x="612.0" y="158.0" width="24.0" height="24.0" fill="rgb(121,152,214)" stroke="#e6e6ee" stroke-width="0.4"/><rect x="444.0" y="182.0" width="24.0" height="24.0" fill="rgb(201,214,238)" stroke="#e6e6ee" stroke-width="0.4"/><rect x="468.0" y="182.0" width="24.0" height="24.0" fill="rgb(255,228,228)" stroke="#e6e6ee" stroke-width="0.4"/><rect x="492.0" y="182.0" width="24.0" height="24.0" fill="rgb(255,138,138)" stroke="#e6e6ee" stroke-width="0.4"/><rect x="516.0" y="182.0" width="24.0" height="24.0" fill="rgb(255,86,86)" stroke="#e6e6ee" stroke-width="0.4"/><rect x="540.0" y="182.0" width="24.0" height="24.0" fill="rgb(255,102,102)" stroke="#e6e6ee" stroke-width="0.4"/><rect x="564.0" y="182.0" width="24.0" height="24.0" fill="rgb(255,177,177)" stroke="#e6e6ee" stroke-width="0.4"/><rect x="588.0" y="182.0" width="24.0" height="24.0" fill="rgb(241,244,250)" stroke="#e6e6ee" stroke-width="0.4"/><rect x="612.0" y="182.0" width="24.0" height="24.0" fill="rgb(184,200,233)" stroke="#e6e6ee" stroke-width="0.4"/><rect x="444.0" y="206.0" width="24.0" height="24.0" fill="rgb(230,236,247)" stroke="#e6e6ee" stroke-width="0.4"/><rect x="468.0" y="206.0" width="24.0" height="24.0" fill="rgb(255,202,202)" stroke="#e6e6ee" stroke-width="0.4"/><rect x="492.0" y="206.0" width="24.0" height="24.0" fill="rgb(255,112,112)" stroke="#e6e6ee" stroke-width="0.4"/><rect x="516.0" y="206.0" width="24.0" height="24.0" fill="rgb(255,60,60)" stroke="#e6e6ee" stroke-width="0.4"/><rect x="540.0" y="206.0" width="24.0" height="24.0" fill="rgb(255,76,76)" stroke="#e6e6ee" stroke-width="0.4"/><rect x="564.0" y="206.0" width="24.0" height="24.0" fill="rgb(255,151,151)" stroke="#e6e6ee" stroke-width="0.4"/><rect x="588.0" y="206.0" width="24.0" height="24.0" fill="rgb(255,241,241)" stroke="#e6e6ee" stroke-width="0.4"/><rect x="612.0" y="206.0" width="24.0" height="24.0" fill="rgb(212,222,242)" stroke="#e6e6ee" stroke-width="0.4"/><rect x="444.0" y="230.0" width="24.0" height="24.0" fill="rgb(208,219,240)" stroke="#e6e6ee" stroke-width="0.4"/><rect x="468.0" y="230.0" width="24.0" height="24.0" fill="rgb(255,222,222)" stroke="#e6e6ee" stroke-width="0.4"/><rect x="492.0" y="230.0" width="24.0" height="24.0" fill="rgb(255,132,132)" stroke="#e6e6ee" stroke-width="0.4"/><rect x="516.0" y="230.0" width="24.0" height="24.0" fill="rgb(255,79,79)" stroke="#e6e6ee" stroke-width="0.4"/><rect x="540.0" y="230.0" width="24.0" height="24.0" fill="rgb(255,95,95)" stroke="#e6e6ee" stroke-width="0.4"/><rect x="564.0" y="230.0" width="24.0" height="24.0" fill="rgb(255,170,170)" stroke="#e6e6ee" stroke-width="0.4"/><rect x="588.0" y="230.0" width="24.0" height="24.0" fill="rgb(248,249,253)" stroke="#e6e6ee" stroke-width="0.4"/><rect x="612.0" y="230.0" width="24.0" height="24.0" fill="rgb(190,205,235)" stroke="#e6e6ee" stroke-width="0.4"/><rect x="444.0" y="254.0" width="24.0" height="24.0" fill="rgb(148,173,222)" stroke="#e6e6ee" stroke-width="0.4"/><rect x="468.0" y="254.0" width="24.0" height="24.0" fill="rgb(231,237,247)" stroke="#e6e6ee" stroke-width="0.4"/><rect x="492.0" y="254.0" width="24.0" height="24.0" fill="rgb(255,186,186)" stroke="#e6e6ee" stroke-width="0.4"/><rect x="516.0" y="254.0" width="24.0" height="24.0" fill="rgb(255,133,133)" stroke="#e6e6ee" stroke-width="0.4"/><rect x="540.0" y="254.0" width="24.0" height="24.0" fill="rgb(255,150,150)" stroke="#e6e6ee" stroke-width="0.4"/><rect x="564.0" y="254.0" width="24.0" height="24.0" fill="rgb(255,225,225)" stroke="#e6e6ee" stroke-width="0.4"/><rect x="588.0" y="254.0" width="24.0" height="24.0" fill="rgb(188,204,234)" stroke="#e6e6ee" stroke-width="0.4"/><rect x="612.0" y="254.0" width="24.0" height="24.0" fill="rgb(131,159,217)" stroke="#e6e6ee" stroke-width="0.4"/><rect x="444.0" y="86.0" width="192.0" height="192.0" fill="none" stroke="#333" stroke-width="1"/><text x="444.0" y="294.0" font-size="11" font-weight="600" fill="#222">mode 2 (λ = -0.586)</text><text x="444.0" y="308.0" font-size="10" fill="#777">peak |v| = 2.412e-1</text><rect x="656.0" y="86.0" width="24.0" height="24.0" fill="rgb(255,239,239)" stroke="#e6e6ee" stroke-width="0.4"/><rect x="680.0" y="86.0" width="24.0" height="24.0" fill="rgb(255,186,186)" stroke="#e6e6ee" stroke-width="0.4"/><rect x="704.0" y="86.0" width="24.0" height="24.0" fill="rgb(255,129,129)" stroke="#e6e6ee" stroke-width="0.4"/><rect x="728.0" y="86.0" width="24.0" height="24.0" fill="rgb(255,102,102)" stroke="#e6e6ee" stroke-width="0.4"/><rect x="752.0" y="86.0" width="24.0" height="24.0" fill="rgb(255,121,121)" stroke="#e6e6ee" stroke-width="0.4"/><rect x="776.0" y="86.0" width="24.0" height="24.0" fill="rgb(255,174,174)" stroke="#e6e6ee" stroke-width="0.4"/><rect x="800.0" y="86.0" width="24.0" height="24.0" fill="rgb(255,231,231)" stroke="#e6e6ee" stroke-width="0.4"/><rect x="824.0" y="86.0" width="24.0" height="24.0" fill="rgb(251,252,253)" stroke="#e6e6ee" stroke-width="0.4"/><rect x="656.0" y="110.0" width="24.0" height="24.0" fill="rgb(255,197,197)" stroke="#e6e6ee" stroke-width="0.4"/><rect x="680.0" y="110.0" width="24.0" height="24.0" fill="rgb(255,143,143)" stroke="#e6e6ee" stroke-width="0.4"/><rect x="704.0" y="110.0" width="24.0" height="24.0" fill="rgb(255,86,86)" stroke="#e6e6ee" stroke-width="0.4"/><rect x="728.0" y="110.0" width="24.0" height="24.0" fill="rgb(255,60,60)" stroke="#e6e6ee" stroke-width="0.4"/><rect x="752.0" y="110.0" width="24.0" height="24.0" fill="rgb(255,78,78)" stroke="#e6e6ee" stroke-width="0.4"/><rect x="776.0" y="110.0" width="24.0" height="24.0" fill="rgb(255,131,131)" stroke="#e6e6ee" stroke-width="0.4"/><rect x="800.0" y="110.0" width="24.0" height="24.0" fill="rgb(255,188,188)" stroke="#e6e6ee" stroke-width="0.4"/><rect x="824.0" y="110.0" width="24.0" height="24.0" fill="rgb(255,215,215)" stroke="#e6e6ee" stroke-width="0.4"/><rect x="656.0" y="134.0" width="24.0" height="24.0" fill="rgb(255,222,222)" stroke="#e6e6ee" stroke-width="0.4"/><rect x="680.0" y="134.0" width="24.0" height="24.0" fill="rgb(255,169,169)" stroke="#e6e6ee" stroke-width="0.4"/><rect x="704.0" y="134.0" width="24.0" height="24.0" fill="rgb(255,112,112)" stroke="#e6e6ee" stroke-width="0.4"/><rect x="728.0" y="134.0" width="24.0" height="24.0" fill="rgb(255,85,85)" stroke="#e6e6ee" stroke-width="0.4"/><rect x="752.0" y="134.0" width="24.0" height="24.0" fill="rgb(255,104,104)" stroke="#e6e6ee" stroke-width="0.4"/><rect x="776.0" y="134.0" width="24.0" height="24.0" fill="rgb(255,157,157)" stroke="#e6e6ee" stroke-width="0.4"/><rect x="800.0" y="134.0" width="24.0" height="24.0" fill="rgb(255,214,214)" stroke="#e6e6ee" stroke-width="0.4"/><rect x="824.0" y="134.0" width="24.0" height="24.0" fill="rgb(255,241,241)" stroke="#e6e6ee" stroke-width="0.4"/><rect x="656.0" y="158.0" width="24.0" height="24.0" fill="rgb(202,214,239)" stroke="#e6e6ee" stroke-width="0.4"/><rect x="680.0" y="158.0" width="24.0" height="24.0" fill="rgb(255,248,248)" stroke="#e6e6ee" stroke-width="0.4"/><rect x="704.0" y="158.0" width="24.0" height="24.0" fill="rgb(255,192,192)" stroke="#e6e6ee" stroke-width="0.4"/><rect x="728.0" y="158.0" width="24.0" height="24.0" fill="rgb(255,165,165)" stroke="#e6e6ee" stroke-width="0.4"/><rect x="752.0" y="158.0" width="24.0" height="24.0" fill="rgb(255,183,183)" stroke="#e6e6ee" stroke-width="0.4"/><rect x="776.0" y="158.0" width="24.0" height="24.0" fill="rgb(255,237,237)" stroke="#e6e6ee" stroke-width="0.4"/><rect x="800.0" y="158.0" width="24.0" height="24.0" fill="rgb(212,222,242)" stroke="#e6e6ee" stroke-width="0.4"/><rect x="824.0" y="158.0" width="24.0" height="24.0" fill="rgb(182,199,233)" stroke="#e6e6ee" stroke-width="0.4"/><rect x="656.0" y="182.0" width="24.0" height="24.0" fill="rgb(107,141,210)" stroke="#e6e6ee" stroke-width="0.4"/><rect x="680.0" y="182.0" width="24.0" height="24.0" fill="rgb(166,187,228)" stroke="#e6e6ee" stroke-width="0.4"/><rect x="704.0" y="182.0" width="24.0" height="24.0" fill="rgb(229,235,247)" stroke="#e6e6ee" stroke-width="0.4"/><rect x="728.0" y="182.0" width="24.0" height="24.0" fill="rgb(255,251,251)" stroke="#e6e6ee" stroke-width="0.4"/><rect x="752.0" y="182.0" width="24.0" height="24.0" fill="rgb(238,242,249)" stroke="#e6e6ee" stroke-width="0.4"/><rect x="776.0" y="182.0" width="24.0" height="24.0" fill="rgb(179,196,232)" stroke="#e6e6ee" stroke-width="0.4"/><rect x="800.0" y="182.0" width="24.0" height="24.0" fill="rgb(116,148,213)" stroke="#e6e6ee" stroke-width="0.4"/><rect x="824.0" y="182.0" width="24.0" height="24.0" fill="rgb(87,126,204)" stroke="#e6e6ee" stroke-width="0.4"/><rect x="656.0" y="206.0" width="24.0" height="24.0" fill="rgb(60,105,196)" stroke="#e6e6ee" stroke-width="0.4"/><rect x="680.0" y="206.0" width="24.0" height="24.0" fill="rgb(119,150,213)" stroke="#e6e6ee" stroke-width="0.4"/><rect x="704.0" y="206.0" width="24.0" height="24.0" fill="rgb(181,198,232)" stroke="#e6e6ee" stroke-width="0.4"/><rect x="728.0" y="206.0" width="24.0" height="24.0" fill="rgb(211,221,241)" stroke="#e6e6ee" stroke-width="0.4"/><rect x="752.0" y="206.0" width="24.0" height="24.0" fill="rgb(191,205,235)" stroke="#e6e6ee" stroke-width="0.4"/><rect x="776.0" y="206.0" width="24.0" height="24.0" fill="rgb(132,160,217)" stroke="#e6e6ee" stroke-width="0.4"/><rect x="800.0" y="206.0" width="24.0" height="24.0" fill="rgb(69,112,198)" stroke="#e6e6ee" stroke-width="0.4"/><rect x="824.0" y="206.0" width="24.0" height="24.0" fill="rgb(40,90,190)" stroke="#e6e6ee" stroke-width="0.4"/><rect x="656.0" y="230.0" width="24.0" height="24.0" fill="rgb(89,127,204)" stroke="#e6e6ee" stroke-width="0.4"/><rect x="680.0" y="230.0" width="24.0" height="24.0" fill="rgb(147,172,222)" stroke="#e6e6ee" stroke-width="0.4"/><rect x="704.0" y="230.0" width="24.0" height="24.0" fill="rgb(210,220,241)" stroke="#e6e6ee" stroke-width="0.4"/><rect x="728.0" y="230.0" width="24.0" height="24.0" fill="rgb(240,243,250)" stroke="#e6e6ee" stroke-width="0.4"/><rect x="752.0" y="230.0" width="24.0" height="24.0" fill="rgb(219,227,244)" stroke="#e6e6ee" stroke-width="0.4"/><rect x="776.0" y="230.0" width="24.0" height="24.0" fill="rgb(160,182,226)" stroke="#e6e6ee" stroke-width="0.4"/><rect x="800.0" y="230.0" width="24.0" height="24.0" fill="rgb(98,134,207)" stroke="#e6e6ee" stroke-width="0.4"/><rect x="824.0" y="230.0" width="24.0" height="24.0" fill="rgb(68,111,198)" stroke="#e6e6ee" stroke-width="0.4"/><rect x="656.0" y="254.0" width="24.0" height="24.0" fill="rgb(176,194,231)" stroke="#e6e6ee" stroke-width="0.4"/><rect x="680.0" y="254.0" width="24.0" height="24.0" fill="rgb(235,239,249)" stroke="#e6e6ee" stroke-width="0.4"/><rect x="704.0" y="254.0" width="24.0" height="24.0" fill="rgb(255,216,216)" stroke="#e6e6ee" stroke-width="0.4"/><rect x="728.0" y="254.0" width="24.0" height="24.0" fill="rgb(255,189,189)" stroke="#e6e6ee" stroke-width="0.4"/><rect x="752.0" y="254.0" width="24.0" height="24.0" fill="rgb(255,207,207)" stroke="#e6e6ee" stroke-width="0.4"/><rect x="776.0" y="254.0" width="24.0" height="24.0" fill="rgb(248,249,252)" stroke="#e6e6ee" stroke-width="0.4"/><rect x="800.0" y="254.0" width="24.0" height="24.0" fill="rgb(185,201,234)" stroke="#e6e6ee" stroke-width="0.4"/><rect x="824.0" y="254.0" width="24.0" height="24.0" fill="rgb(156,179,225)" stroke="#e6e6ee" stroke-width="0.4"/><rect x="656.0" y="86.0" width="192.0" height="192.0" fill="none" stroke="#333" stroke-width="1"/><text x="656.0" y="294.0" font-size="11" font-weight="600" fill="#222">mode 3 (λ = -0.586)</text><text x="656.0" y="308.0" font-size="10" fill="#777">peak |v| = 2.440e-1</text>
</svg>
