<svg xmlns="http://www.w3.org/2000/svg" width="880" height="322" viewBox="0 0 880 322" font-family="ui-monospace,Menlo,monospace">
<rect width="100%" height="100%" fill="#fbfbfd"/>
<text x="20" y="27" font-size="16" font-weight="700" fill="#111">CTRL-BLIND — the 4 modes a collocated central-difference operator cannot see</text>
<text x="20" y="47" font-size="11" fill="#555">The instrument's positive control. 1 legitimate (the constant) + 3 SPURIOUS. The 3 spurious are the Nyquist modes; one of them</text><text x="20" y="62" font-size="11" fill="#555">is the literal checkerboard.</text><rect x="20.0" y="86.0" width="24.0" height="24.0" fill="rgb(255,60,60)" stroke="#e6e6ee" stroke-width="0.4"/><rect x="44.0" y="86.0" width="24.0" height="24.0" fill="rgb(255,255,255)" stroke="#e6e6ee" stroke-width="0.4"/><rect x="68.0" y="86.0" width="24.0" height="24.0" fill="rgb(255,60,60)" stroke="#e6e6ee" stroke-width="0.4"/><rect x="92.0" y="86.0" width="24.0" height="24.0" fill="rgb(255,255,255)" stroke="#e6e6ee" stroke-width="0.4"/><rect x="116.0" y="86.0" width="24.0" height="24.0" fill="rgb(255,60,60)" stroke="#e6e6ee" stroke-width="0.4"/><rect x="140.0" y="86.0" width="24.0" height="24.0" fill="rgb(255,255,255)" stroke="#e6e6ee" stroke-width="0.4"/><rect x="164.0" y="86.0" width="24.0" height="24.0" fill="rgb(255,60,60)" stroke="#e6e6ee" stroke-width="0.4"/><rect x="188.0" y="86.0" width="24.0" height="24.0" fill="rgb(255,255,255)" stroke="#e6e6ee" stroke-width="0.4"/><rect x="20.0" y="110.0" width="24.0" height="24.0" fill="rgb(255,255,255)" stroke="#e6e6ee" stroke-width="0.4"/><rect x="44.0" y="110.0" width="24.0" height="24.0" fill="rgb(255,255,255)" stroke="#e6e6ee" stroke-width="0.4"/><rect x="68.0" y="110.0" width="24.0" height="24.0" fill="rgb(255,255,255)" stroke="#e6e6ee" stroke-width="0.4"/><rect x="92.0" y="110.0" width="24.0" height="24.0" fill="rgb(255,255,255)" stroke="#e6e6ee" stroke-width="0.4"/><rect x="116.0" y="110.0" width="24.0" height="24.0" fill="rgb(255,255,255)" stroke="#e6e6ee" stroke-width="0.4"/><rect x="140.0" y="110.0" width="24.0" height="24.0" fill="rgb(255,255,255)" stroke="#e6e6ee" stroke-width="0.4"/><rect x="164.0" y="110.0" width="24.0" height="24.0" fill="rgb(255,255,255)" stroke="#e6e6ee" stroke-width="0.4"/><rect x="188.0" y="110.0" width="24.0" height="24.0" fill="rgb(255,255,255)" stroke="#e6e6ee" stroke-width="0.4"/><rect x="20.0" y="134.0" width="24.0" height="24.0" fill="rgb(255,60,60)" stroke="#e6e6ee" stroke-width="0.4"/><rect x="44.0" y="134.0" width="24.0" height="24.0" fill="rgb(255,255,255)" stroke="#e6e6ee" stroke-width="0.4"/><rect x="68.0" y="134.0" width="24.0" height="24.0" fill="rgb(255,60,60)" stroke="#e6e6ee" stroke-width="0.4"/><rect x="92.0" y="134.0" width="24.0" height="24.0" fill="rgb(255,255,255)" stroke="#e6e6ee" stroke-width="0.4"/><rect x="116.0" y="134.0" width="24.0" height="24.0" fill="rgb(255,60,60)" stroke="#e6e6ee" stroke-width="0.4"/><rect x="140.0" y="134.0" width="24.0" height="24.0" fill="rgb(255,255,255)" stroke="#e6e6ee" stroke-width="0.4"/><rect x="164.0" y="134.0" width="24.0" height="24.0" fill="rgb(255,60,60)" stroke="#e6e6ee" stroke-width="0.4"/><rect x="188.0" y="134.0" width="24.0" height="24.0" fill="rgb(255,255,255)" stroke="#e6e6ee" stroke-width="0.4"/><rect x="20.0" y="158.0" width="24.0" height="24.0" fill="rgb(255,255,255)" stroke="#e6e6ee" stroke-width="0.4"/><rect x="44.0" y="158.0" width="24.0" height="24.0" fill="rgb(255,255,255)" stroke="#e6e6ee" stroke-width="0.4"/><rect x="68.0" y="158.0" width="24.0" height="24.0" fill="rgb(255,255,255)" stroke="#e6e6ee" stroke-width="0.4"/><rect x="92.0" y="158.0" width="24.0" height="24.0" fill="rgb(255,255,255)" stroke="#e6e6ee" stroke-width="0.4"/><rect x="116.0" y="158.0" width="24.0" height="24.0" fill="rgb(255,255,255)" stroke="#e6e6ee" stroke-width="0.4"/><rect x="140.0" y="158.0" width="24.0" height="24.0" fill="rgb(255,255,255)" stroke="#e6e6ee" stroke-width="0.4"/><rect x="164.0" y="158.0" width="24.0" height="24.0" fill="rgb(255,255,255)" stroke="#e6e6ee" stroke-width="0.4"/><rect x="188.0" y="158.0" width="24.0" height="24.0" fill="rgb(255,255,255)" stroke="#e6e6ee" stroke-width="0.4"/><rect x="20.0" y="182.0" width="24.0" height="24.0" fill="rgb(255,60,60)" stroke="#e6e6ee" stroke-width="0.4"/><rect x="44.0" y="182.0" width="24.0" height="24.0" fill="rgb(255,255,255)" stroke="#e6e6ee" stroke-width="0.4"/><rect x="68.0" y="182.0" width="24.0" height="24.0" fill="rgb(255,60,60)" stroke="#e6e6ee" stroke-width="0.4"/><rect x="92.0" y="182.0" width="24.0" height="24.0" fill="rgb(255,255,255)" stroke="#e6e6ee" stroke-width="0.4"/><rect x="116.0" y="182.0" width="24.0" height="24.0" fill="rgb(255,60,60)" stroke="#e6e6ee" stroke-width="0.4"/><rect x="140.0" y="182.0" width="24.0" height="24.0" fill="rgb(255,255,255)" stroke="#e6e6ee" stroke-width="0.4"/><rect x="164.0" y="182.0" width="24.0" height="24.0" fill="rgb(255,60,60)" stroke="#e6e6ee" stroke-width="0.4"/><rect x="188.0" y="182.0" width="24.0" height="24.0" fill="rgb(255,255,255)" stroke="#e6e6ee" stroke-width="0.4"/><rect x="20.0" y="206.0" width="24.0" height="24.0" fill="rgb(255,255,255)" stroke="#e6e6ee" stroke-width="0.4"/><rect x="44.0" y="206.0" width="24.0" height="24.0" fill="rgb(255,255,255)" stroke="#e6e6ee" stroke-width="0.4"/><rect x="68.0" y="206.0" width="24.0" height="24.0" fill="rgb(255,255,255)" stroke="#e6e6ee" stroke-width="0.4"/><rect x="92.0" y="206.0" width="24.0" height="24.0" fill="rgb(255,255,255)" stroke="#e6e6ee" stroke-width="0.4"/><rect x="116.0" y="206.0" width="24.0" height="24.0" fill="rgb(255,255,255)" stroke="#e6e6ee" stroke-width="0.4"/><rect x="140.0" y="206.0" width="24.0" height="24.0" fill="rgb(255,255,255)" stroke="#e6e6ee" stroke-width="0.4"/><rect x="164.0" y="206.0" width="24.0" height="24.0" fill="rgb(255,255,255)" stroke="#e6e6ee" stroke-width="0.4"/><rect x="188.0" y="206.0" width="24.0" height="24.0" fill="rgb(255,255,255)" stroke="#e6e6ee" stroke-width="0.4"/><rect x="20.0" y="230.0" width="24.0" height="24.0" fill="rgb(255,60,60)" stroke="#e6e6ee" stroke-width="0.4"/><rect x="44.0" y="230.0" width="24.0" height="24.0" fill="rgb(255,255,255)" stroke="#e6e6ee" stroke-width="0.4"/><rect x="68.0" y="230.0" width="24.0" height="24.0" fill="rgb(255,60,60)" stroke="#e6e6ee" stroke-width="0.4"/><rect x="92.0" y="230.0" width="24.0" height="24.0" fill="rgb(255,255,255)" stroke="#e6e6ee" stroke-width="0.4"/><rect x="116.0" y="230.0" width="24.0" height="24.0" fill="rgb(255,60,60)" stroke="#e6e6ee" stroke-width="0.4"/><rect x="140.0" y="230.0" width="24.0" height="24.0" fill="rgb(255,255,255)" stroke="#e6e6ee" stroke-width="0.4"/><rect x="164.0" y="230.0" width="24.0" height="24.0" fill="rgb(255,60,60)" stroke="#e6e6ee" stroke-width="0.4"/><rect x="188.0" y="230.0" width="24.0" height="24.0" fill="rgb(255,255,255)" stroke="#e6e6ee" stroke-width="0.4"/><rect x="20.0" y="254.0" width="24.0" height="24.0" fill="rgb(255,255,255)" stroke="#e6e6ee" stroke-width="0.4"/><rect x="44.0" y="254.0" width="24.0" height="24.0" fill="rgb(255,255,255)" stroke="#e6e6ee" stroke-width="0.4"/><rect x="68.0" y="254.0" width="24.0" height="24.0" fill="rgb(255,255,255)" stroke="#e6e6ee" stroke-width="0.4"/><rect x="92.0" y="254.0" width="24.0" height="24.0" fill="rgb(255,255,255)" stroke="#e6e6ee" stroke-width="0.4"/><rect x="116.0" y="254.0" width="24.0" height="24.0" fill="rgb(255,255,255)" stroke="#e6e6ee" stroke-width="0.4"/><rect x="140.0" y="254.0" width="24.0" height="24.0" fill="rgb(255,255,255)" stroke="#e6e6ee" stroke-width="0.4"/><rect x="164.0" y="254.0" width="24.0" height="24.0" fill="rgb(255,255,255)" stroke="#e6e6ee" stroke-width="0.4"/><rect x="188.0" y="254.0" width="24.0" height="24.0" fill="rgb(255,255,255)" stroke="#e6e6ee" stroke-width="0.4"/><rect x="20.0" y="86.0" width="192.0" height="192.0" fill="none" stroke="#333" stroke-width="1"/><text x="20.0" y="294.0" font-size="11" font-weight="600" fill="#222">null mode 0  (λ = -6.2e-17)</text><text x="20.0" y="308.0" font-size="10" fill="#777">peak |v| = 2.500e-1</text><rect x="232.0" y="86.0" width="24.0" height="24.0" fill="rgb(255,255,255)" stroke="#e6e6ee" stroke-width="0.4"/><rect x="256.0" y="86.0" width="24.0" height="24.0" fill="rgb(255,60,60)" stroke="#e6e6ee" stroke-width="0.4"/><rect x="280.0" y="86.0" width="24.0" height="24.0" fill="rgb(255,255,255)" stroke="#e6e6ee" stroke-width="0.4"/><rect x="304.0" y="86.0" width="24.0" height="24.0" fill="rgb(255,60,60)" stroke="#e6e6ee" stroke-width="0.4"/><rect x="328.0" y="86.0" width="24.0" height="24.0" fill="rgb(255,255,255)" stroke="#e6e6ee" stroke-width="0.4"/><rect x="352.0" y="86.0" width="24.0" height="24.0" fill="rgb(255,60,60)" stroke="#e6e6ee" stroke-width="0.4"/><rect x="376.0" y="86.0" width="24.0" height="24.0" fill="rgb(255,255,255)" stroke="#e6e6ee" stroke-width="0.4"/><rect x="400.0" y="86.0" width="24.0" height="24.0" fill="rgb(255,60,60)" stroke="#e6e6ee" stroke-width="0.4"/><rect x="232.0" y="110.0" width="24.0" height="24.0" fill="rgb(255,255,255)" stroke="#e6e6ee" stroke-width="0.4"/><rect x="256.0" y="110.0" width="24.0" height="24.0" fill="rgb(255,255,255)" stroke="#e6e6ee" stroke-width="0.4"/><rect x="280.0" y="110.0" width="24.0" height="24.0" fill="rgb(255,255,255)" stroke="#e6e6ee" stroke-width="0.4"/><rect x="304.0" y="110.0" width="24.0" height="24.0" fill="rgb(255,255,255)" stroke="#e6e6ee" stroke-width="0.4"/><rect x="328.0" y="110.0" width="24.0" height="24.0" fill="rgb(255,255,255)" stroke="#e6e6ee" stroke-width="0.4"/><rect x="352.0" y="110.0" width="24.0" height="24.0" fill="rgb(255,255,255)" stroke="#e6e6ee" stroke-width="0.4"/><rect x="376.0" y="110.0" width="24.0" height="24.0" fill="rgb(255,255,255)" stroke="#e6e6ee" stroke-width="0.4"/><rect x="400.0" y="110.0" width="24.0" height="24.0" fill="rgb(255,255,255)" stroke="#e6e6ee" stroke-width="0.4"/><rect x="232.0" y="134.0" width="24.0" height="24.0" fill="rgb(255,255,255)" stroke="#e6e6ee" stroke-width="0.4"/><rect x="256.0" y="134.0" width="24.0" height="24.0" fill="rgb(255,60,60)" stroke="#e6e6ee" stroke-width="0.4"/><rect x="280.0" y="134.0" width="24.0" height="24.0" fill="rgb(255,255,255)" stroke="#e6e6ee" stroke-width="0.4"/><rect x="304.0" y="134.0" width="24.0" height="24.0" fill="rgb(255,60,60)" stroke="#e6e6ee" stroke-width="0.4"/><rect x="328.0" y="134.0" width="24.0" height="24.0" fill="rgb(255,255,255)" stroke="#e6e6ee" stroke-width="0.4"/><rect x="352.0" y="134.0" width="24.0" height="24.0" fill="rgb(255,60,60)" stroke="#e6e6ee" stroke-width="0.4"/><rect x="376.0" y="134.0" width="24.0" height="24.0" fill="rgb(255,255,255)" stroke="#e6e6ee" stroke-width="0.4"/><rect x="400.0" y="134.0" width="24.0" height="24.0" fill="rgb(255,60,60)" stroke="#e6e6ee" stroke-width="0.4"/><rect x="232.0" y="158.0" width="24.0" height="24.0" fill="rgb(255,255,255)" stroke="#e6e6ee" stroke-width="0.4"/><rect x="256.0" y="158.0" width="24.0" height="24.0" fill="rgb(255,255,255)" stroke="#e6e6ee" stroke-width="0.4"/><rect x="280.0" y="158.0" width="24.0" height="24.0" fill="rgb(255,255,255)" stroke="#e6e6ee" stroke-width="0.4"/><rect x="304.0" y="158.0" width="24.0" height="24.0" fill="rgb(255,255,255)" stroke="#e6e6ee" stroke-width="0.4"/><rect x="328.0" y="158.0" width="24.0" height="24.0" fill="rgb(255,255,255)" stroke="#e6e6ee" stroke-width="0.4"/><rect x="352.0" y="158.0" width="24.0" height="24.0" fill="rgb(255,255,255)" stroke="#e6e6ee" stroke-width="0.4"/><rect x="376.0" y="158.0" width="24.0" height="24.0" fill="rgb(255,255,255)" stroke="#e6e6ee" stroke-width="0.4"/><rect x="400.0" y="158.0" width="24.0" height="24.0" fill="rgb(255,255,255)" stroke="#e6e6ee" stroke-width="0.4"/><rect x="232.0" y="182.0" width="24.0" height="24.0" fill="rgb(255,255,255)" stroke="#e6e6ee" stroke-width="0.4"/><rect x="256.0" y="182.0" width="24.0" height="24.0" fill="rgb(255,60,60)" stroke="#e6e6ee" stroke-width="0.4"/><rect x="280.0" y="182.0" width="24.0" height="24.0" fill="rgb(255,255,255)" stroke="#e6e6ee" stroke-width="0.4"/><rect x="304.0" y="182.0" width="24.0" height="24.0" fill="rgb(255,60,60)" stroke="#e6e6ee" stroke-width="0.4"/><rect x="328.0" y="182.0" width="24.0" height="24.0" fill="rgb(255,255,255)" stroke="#e6e6ee" stroke-width="0.4"/><rect x="352.0" y="182.0" width="24.0" height="24.0" fill="rgb(255,60,60)" stroke="#e6e6ee" stroke-width="0.4"/><rect x="376.0" y="182.0" width="24.0" height="24.0" fill="rgb(255,255,255)" stroke="#e6e6ee" stroke-width="0.4"/><rect x="400.0" y="182.0" width="24.0" height="24.0" fill="rgb(255,60,60)" stroke="#e6e6ee" stroke-width="0.4"/><rect x="232.0" y="206.0" width="24.0" height="24.0" fill="rgb(255,255,255)" stroke="#e6e6ee" stroke-width="0.4"/><rect x="256.0" y="206.0" width="24.0" height="24.0" fill="rgb(255,255,255)" stroke="#e6e6ee" stroke-width="0.4"/><rect x="280.0" y="206.0" width="24.0" height="24.0" fill="rgb(255,255,255)" stroke="#e6e6ee" stroke-width="0.4"/><rect x="304.0" y="206.0" width="24.0" height="24.0" fill="rgb(255,255,255)" stroke="#e6e6ee" stroke-width="0.4"/><rect x="328.0" y="206.0" width="24.0" height="24.0" fill="rgb(255,255,255)" stroke="#e6e6ee" stroke-width="0.4"/><rect x="352.0" y="206.0" width="24.0" height="24.0" fill="rgb(255,255,255)" stroke="#e6e6ee" stroke-width="0.4"/><rect x="376.0" y="206.0" width="24.0" height="24.0" fill="rgb(255,255,255)" stroke="#e6e6ee" stroke-width="0.4"/><rect x="400.0" y="206.0" width="24.0" height="24.0" fill="rgb(255,255,255)" stroke="#e6e6ee" stroke-width="0.4"/><rect x="232.0" y="230.0" width="24.0" height="24.0" fill="rgb(255,255,255)" stroke="#e6e6ee" stroke-width="0.4"/><rect x="256.0" y="230.0" width="24.0" height="24.0" fill="rgb(255,60,60)" stroke="#e6e6ee" stroke-width="0.4"/><rect x="280.0" y="230.0" width="24.0" height="24.0" fill="rgb(255,255,255)" stroke="#e6e6ee" stroke-width="0.4"/><rect x="304.0" y="230.0" width="24.0" height="24.0" fill="rgb(255,60,60)" stroke="#e6e6ee" stroke-width="0.4"/><rect x="328.0" y="230.0" width="24.0" height="24.0" fill="rgb(255,255,255)" stroke="#e6e6ee" stroke-width="0.4"/><rect x="352.0" y="230.0" width="24.0" height="24.0" fill="rgb(255,60,60)" stroke="#e6e6ee" stroke-width="0.4"/><rect x="376.0" y="230.0" width="24.0" height="24.0" fill="rgb(255,255,255)" stroke="#e6e6ee" stroke-width="0.4"/><rect x="400.0" y="230.0" width="24.0" height="24.0" fill="rgb(255,60,60)" stroke="#e6e6ee" stroke-width="0.4"/><rect x="232.0" y="254.0" width="24.0" height="24.0" fill="rgb(255,255,255)" stroke="#e6e6ee" stroke-width="0.4"/><rect x="256.0" y="254.0" width="24.0" height="24.0" fill="rgb(255,255,255)" stroke="#e6e6ee" stroke-width="0.4"/><rect x="280.0" y="254.0" width="24.0" height="24.0" fill="rgb(255,255,255)" stroke="#e6e6ee" stroke-width="0.4"/><rect x="304.0" y="254.0" width="24.0" height="24.0" fill="rgb(255,255,255)" stroke="#e6e6ee" stroke-width="0.4"/><rect x="328.0" y="254.0" width="24.0" height="24.0" fill="rgb(255,255,255)" stroke="#e6e6ee" stroke-width="0.4"/><rect x="352.0" y="254.0" width="24.0" height="24.0" fill="rgb(255,255,255)" stroke="#e6e6ee" stroke-width="0.4"/><rect x="376.0" y="254.0" width="24.0" height="24.0" fill="rgb(255,255,255)" stroke="#e6e6ee" stroke-width="0.4"/><rect x="400.0" y="254.0" width="24.0" height="24.0" fill="rgb(255,255,255)" stroke="#e6e6ee" stroke-width="0.4"/><rect x="232.0" y="86.0" width="192.0" height="192.0" fill="none" stroke="#333" stroke-width="1"/><text x="232.0" y="294.0" font-size="11" font-weight="600" fill="#222">null mode 1  (λ = -6.2e-17)</text><text x="232.0" y="308.0" font-size="10" fill="#777">peak |v| = 2.500e-1</text><rect x="444.0" y="86.0" width="24.0" height="24.0" fill="rgb(255,255,255)" stroke="#e6e6ee" stroke-width="0.4"/><rect x="468.0" y="86.0" width="24.0" height="24.0" fill="rgb(255,255,255)" stroke="#e6e6ee" stroke-width="0.4"/><rect x="492.0" y="86.0" width="24.0" height="24.0" fill="rgb(255,255,255)" stroke="#e6e6ee" stroke-width="0.4"/><rect x="516.0" y="86.0" width="24.0" height="24.0" fill="rgb(255,255,255)" stroke="#e6e6ee" stroke-width="0.4"/><rect x="540.0" y="86.0" width="24.0" height="24.0" fill="rgb(255,255,255)" stroke="#e6e6ee" stroke-width="0.4"/><rect x="564.0" y="86.0" width="24.0" height="24.0" fill="rgb(255,255,255)" stroke="#e6e6ee" stroke-width="0.4"/><rect x="588.0" y="86.0" width="24.0" height="24.0" fill="rgb(255,255,255)" stroke="#e6e6ee" stroke-width="0.4"/><rect x="612.0" y="86.0" width="24.0" height="24.0" fill="rgb(255,255,255)" stroke="#e6e6ee" stroke-width="0.4"/><rect x="444.0" y="110.0" width="24.0" height="24.0" fill="rgb(255,60,60)" stroke="#e6e6ee" stroke-width="0.4"/><rect x="468.0" y="110.0" width="24.0" height="24.0" fill="rgb(255,255,255)" stroke="#e6e6ee" stroke-width="0.4"/><rect x="492.0" y="110.0" width="24.0" height="24.0" fill="rgb(255,60,60)" stroke="#e6e6ee" stroke-width="0.4"/><rect x="516.0" y="110.0" width="24.0" height="24.0" fill="rgb(255,255,255)" stroke="#e6e6ee" stroke-width="0.4"/><rect x="540.0" y="110.0" width="24.0" height="24.0" fill="rgb(255,60,60)" stroke="#e6e6ee" stroke-width="0.4"/><rect x="564.0" y="110.0" width="24.0" height="24.0" fill="rgb(255,255,255)" stroke="#e6e6ee" stroke-width="0.4"/><rect x="588.0" y="110.0" width="24.0" height="24.0" fill="rgb(255,60,60)" stroke="#e6e6ee" stroke-width="0.4"/><rect x="612.0" y="110.0" width="24.0" height="24.0" fill="rgb(255,255,255)" stroke="#e6e6ee" stroke-width="0.4"/><rect x="444.0" y="134.0" width="24.0" height="24.0" fill="rgb(255,255,255)" stroke="#e6e6ee" stroke-width="0.4"/><rect x="468.0" y="134.0" width="24.0" height="24.0" fill="rgb(255,255,255)" stroke="#e6e6ee" stroke-width="0.4"/><rect x="492.0" y="134.0" width="24.0" height="24.0" fill="rgb(255,255,255)" stroke="#e6e6ee" stroke-width="0.4"/><rect x="516.0" y="134.0" width="24.0" height="24.0" fill="rgb(255,255,255)" stroke="#e6e6ee" stroke-width="0.4"/><rect x="540.0" y="134.0" width="24.0" height="24.0" fill="rgb(255,255,255)" stroke="#e6e6ee" stroke-width="0.4"/><rect x="564.0" y="134.0" width="24.0" height="24.0" fill="rgb(255,255,255)" stroke="#e6e6ee" stroke-width="0.4"/><rect x="588.0" y="134.0" width="24.0" height="24.0" fill="rgb(255,255,255)" stroke="#e6e6ee" stroke-width="0.4"/><rect x="612.0" y="134.0" width="24.0" height="24.0" fill="rgb(255,255,255)" stroke="#e6e6ee" stroke-width="0.4"/><rect x="444.0" y="158.0" width="24.0" height="24.0" fill="rgb(255,60,60)" stroke="#e6e6ee" stroke-width="0.4"/><rect x="468.0" y="158.0" width="24.0" height="24.0" fill="rgb(255,255,255)" stroke="#e6e6ee" stroke-width="0.4"/><rect x="492.0" y="158.0" width="24.0" height="24.0" fill="rgb(255,60,60)" stroke="#e6e6ee" stroke-width="0.4"/><rect x="516.0" y="158.0" width="24.0" height="24.0" fill="rgb(255,255,255)" stroke="#e6e6ee" stroke-width="0.4"/><rect x="540.0" y="158.0" width="24.0" height="24.0" fill="rgb(255,60,60)" stroke="#e6e6ee" stroke-width="0.4"/><rect x="564.0" y="158.0" width="24.0" height="24.0" fill="rgb(255,255,255)" stroke="#e6e6ee" stroke-width="0.4"/><rect x="588.0" y="158.0" width="24.0" height="24.0" fill="rgb(255,60,60)" stroke="#e6e6ee" stroke-width="0.4"/><rect x="612.0" y="158.0" width="24.0" height="24.0" fill="rgb(255,255,255)" stroke="#e6e6ee" stroke-width="0.4"/><rect x="444.0" y="182.0" width="24.0" height="24.0" fill="rgb(255,255,255)" stroke="#e6e6ee" stroke-width="0.4"/><rect x="468.0" y="182.0" width="24.0" height="24.0" fill="rgb(255,255,255)" stroke="#e6e6ee" stroke-width="0.4"/><rect x="492.0" y="182.0" width="24.0" height="24.0" fill="rgb(255,255,255)" stroke="#e6e6ee" stroke-width="0.4"/><rect x="516.0" y="182.0" width="24.0" height="24.0" fill="rgb(255,255,255)" stroke="#e6e6ee" stroke-width="0.4"/><rect x="540.0" y="182.0" width="24.0" height="24.0" fill="rgb(255,255,255)" stroke="#e6e6ee" stroke-width="0.4"/><rect x="564.0" y="182.0" width="24.0" height="24.0" fill="rgb(255,255,255)" stroke="#e6e6ee" stroke-width="0.4"/><rect x="588.0" y="182.0" width="24.0" height="24.0" fill="rgb(255,255,255)" stroke="#e6e6ee" stroke-width="0.4"/><rect x="612.0" y="182.0" width="24.0" height="24.0" fill="rgb(255,255,255)" stroke="#e6e6ee" stroke-width="0.4"/><rect x="444.0" y="206.0" width="24.0" height="24.0" fill="rgb(255,60,60)" stroke="#e6e6ee" stroke-width="0.4"/><rect x="468.0" y="206.0" width="24.0" height="24.0" fill="rgb(255,255,255)" stroke="#e6e6ee" stroke-width="0.4"/><rect x="492.0" y="206.0" width="24.0" height="24.0" fill="rgb(255,60,60)" stroke="#e6e6ee" stroke-width="0.4"/><rect x="516.0" y="206.0" width="24.0" height="24.0" fill="rgb(255,255,255)" stroke="#e6e6ee" stroke-width="0.4"/><rect x="540.0" y="206.0" width="24.0" height="24.0" fill="rgb(255,60,60)" stroke="#e6e6ee" stroke-width="0.4"/><rect x="564.0" y="206.0" width="24.0" height="24.0" fill="rgb(255,255,255)" stroke="#e6e6ee" stroke-width="0.4"/><rect x="588.0" y="206.0" width="24.0" height="24.0" fill="rgb(255,60,60)" stroke="#e6e6ee" stroke-width="0.4"/><rect x="612.0" y="206.0" width="24.0" height="24.0" fill="rgb(255,255,255)" stroke="#e6e6ee" stroke-width="0.4"/><rect x="444.0" y="230.0" width="24.0" height="24.0" fill="rgb(255,255,255)" stroke="#e6e6ee" stroke-width="0.4"/><rect x="468.0" y="230.0" width="24.0" height="24.0" fill="rgb(255,255,255)" stroke="#e6e6ee" stroke-width="0.4"/><rect x="492.0" y="230.0" width="24.0" height="24.0" fill="rgb(255,255,255)" stroke="#e6e6ee" stroke-width="0.4"/><rect x="516.0" y="230.0" width="24.0" height="24.0" fill="rgb(255,255,255)" stroke="#e6e6ee" stroke-width="0.4"/><rect x="540.0" y="230.0" width="24.0" height="24.0" fill="rgb(255,255,255)" stroke="#e6e6ee" stroke-width="0.4"/><rect x="564.0" y="230.0" width="24.0" height="24.0" fill="rgb(255,255,255)" stroke="#e6e6ee" stroke-width="0.4"/><rect x="588.0" y="230.0" width="24.0" height="24.0" fill="rgb(255,255,255)" stroke="#e6e6ee" stroke-width="0.4"/><rect x="612.0" y="230.0" width="24.0" height="24.0" fill="rgb(255,255,255)" stroke="#e6e6ee" stroke-width="0.4"/><rect x="444.0" y="254.0" width="24.0" height="24.0" fill="rgb(255,60,60)" stroke="#e6e6ee" stroke-width="0.4"/><rect x="468.0" y="254.0" width="24.0" height="24.0" fill="rgb(255,255,255)" stroke="#e6e6ee" stroke-width="0.4"/><rect x="492.0" y="254.0" width="24.0" height="24.0" fill="rgb(255,60,60)" stroke="#e6e6ee" stroke-width="0.4"/><rect x="516.0" y="254.0" width="24.0" height="24.0" fill="rgb(255,255,255)" stroke="#e6e6ee" stroke-width="0.4"/><rect x="540.0" y="254.0" width="24.0" height="24.0" fill="rgb(255,60,60)" stroke="#e6e6ee" stroke-width="0.4"/><rect x="564.0" y="254.0" width="24.0" height="24.0" fill="rgb(255,255,255)" stroke="#e6e6ee" stroke-width="0.4"/><rect x="588.0" y="254.0" width="24.0" height="24.0" fill="rgb(255,60,60)" stroke="#e6e6ee" stroke-width="0.4"/><rect x="612.0" y="254.0" width="24.0" height="24.0" fill="rgb(255,255,255)" stroke="#e6e6ee" stroke-width="0.4"/><rect x="444.0" y="86.0" width="192.0" height="192.0" fill="none" stroke="#333" stroke-width="1"/><text x="444.0" y="294.0" font-size="11" font-weight="600" fill="#222">null mode 2  (λ = -6.2e-17)</text><text x="444.0" y="308.0" font-size="10" fill="#777">peak |v| = 2.500e-1</text><rect x="656.0" y="86.0" width="24.0" height="24.0" fill="rgb(255,255,255)" stroke="#e6e6ee" stroke-width="0.4"/><rect x="680.0" y="86.0" width="24.0" height="24.0" fill="rgb(255,255,255)" stroke="#e6e6ee" stroke-width="0.4"/><rect x="704.0" y="86.0" width="24.0" height="24.0" fill="rgb(255,255,255)" stroke="#e6e6ee" stroke-width="0.4"/><rect x="728.0" y="86.0" width="24.0" height="24.0" fill="rgb(255,255,255)" stroke="#e6e6ee" stroke-width="0.4"/><rect x="752.0" y="86.0" width="24.0" height="24.0" fill="rgb(255,255,255)" stroke="#e6e6ee" stroke-width="0.4"/><rect x="776.0" y="86.0" width="24.0" height="24.0" fill="rgb(255,255,255)" stroke="#e6e6ee" stroke-width="0.4"/><rect x="800.0" y="86.0" width="24.0" height="24.0" fill="rgb(255,255,255)" stroke="#e6e6ee" stroke-width="0.4"/><rect x="824.0" y="86.0" width="24.0" height="24.0" fill="rgb(255,255,255)" stroke="#e6e6ee" stroke-width="0.4"/><rect x="656.0" y="110.0" width="24.0" height="24.0" fill="rgb(255,255,255)" stroke="#e6e6ee" stroke-width="0.4"/><rect x="680.0" y="110.0" width="24.0" height="24.0" fill="rgb(255,60,60)" stroke="#e6e6ee" stroke-width="0.4"/><rect x="704.0" y="110.0" width="24.0" height="24.0" fill="rgb(255,255,255)" stroke="#e6e6ee" stroke-width="0.4"/><rect x="728.0" y="110.0" width="24.0" height="24.0" fill="rgb(255,60,60)" stroke="#e6e6ee" stroke-width="0.4"/><rect x="752.0" y="110.0" width="24.0" height="24.0" fill="rgb(255,255,255)" stroke="#e6e6ee" stroke-width="0.4"/><rect x="776.0" y="110.0" width="24.0" height="24.0" fill="rgb(255,60,60)" stroke="#e6e6ee" stroke-width="0.4"/><rect x="800.0" y="110.0" width="24.0" height="24.0" fill="rgb(255,255,255)" stroke="#e6e6ee" stroke-width="0.4"/><rect x="824.0" y="110.0" width="24.0" height="24.0" fill="rgb(255,60,60)" stroke="#e6e6ee" stroke-width="0.4"/><rect x="656.0" y="134.0" width="24.0" height="24.0" fill="rgb(255,255,255)" stroke="#e6e6ee" stroke-width="0.4"/><rect x="680.0" y="134.0" width="24.0" height="24.0" fill="rgb(255,255,255)" stroke="#e6e6ee" stroke-width="0.4"/><rect x="704.0" y="134.0" width="24.0" height="24.0" fill="rgb(255,255,255)" stroke="#e6e6ee" stroke-width="0.4"/><rect x="728.0" y="134.0" width="24.0" height="24.0" fill="rgb(255,255,255)" stroke="#e6e6ee" stroke-width="0.4"/><rect x="752.0" y="134.0" width="24.0" height="24.0" fill="rgb(255,255,255)" stroke="#e6e6ee" stroke-width="0.4"/><rect x="776.0" y="134.0" width="24.0" height="24.0" fill="rgb(255,255,255)" stroke="#e6e6ee" stroke-width="0.4"/><rect x="800.0" y="134.0" width="24.0" height="24.0" fill="rgb(255,255,255)" stroke="#e6e6ee" stroke-width="0.4"/><rect x="824.0" y="134.0" width="24.0" height="24.0" fill="rgb(255,255,255)" stroke="#e6e6ee" stroke-width="0.4"/><rect x="656.0" y="158.0" width="24.0" height="24.0" fill="rgb(255,255,255)" stroke="#e6e6ee" stroke-width="0.4"/><rect x="680.0" y="158.0" width="24.0" height="24.0" fill="rgb(255,60,60)" stroke="#e6e6ee" stroke-width="0.4"/><rect x="704.0" y="158.0" width="24.0" height="24.0" fill="rgb(255,255,255)" stroke="#e6e6ee" stroke-width="0.4"/><rect x="728.0" y="158.0" width="24.0" height="24.0" fill="rgb(255,60,60)" stroke="#e6e6ee" stroke-width="0.4"/><rect x="752.0" y="158.0" width="24.0" height="24.0" fill="rgb(255,255,255)" stroke="#e6e6ee" stroke-width="0.4"/><rect x="776.0" y="158.0" width="24.0" height="24.0" fill="rgb(255,60,60)" stroke="#e6e6ee" stroke-width="0.4"/><rect x="800.0" y="158.0" width="24.0" height="24.0" fill="rgb(255,255,255)" stroke="#e6e6ee" stroke-width="0.4"/><rect x="824.0" y="158.0" width="24.0" height="24.0" fill="rgb(255,60,60)" stroke="#e6e6ee" stroke-width="0.4"/><rect x="656.0" y="182.0" width="24.0" height="24.0" fill="rgb(255,255,255)" stroke="#e6e6ee" stroke-width="0.4"/><rect x="680.0" y="182.0" width="24.0" height="24.0" fill="rgb(255,255,255)" stroke="#e6e6ee" stroke-width="0.4"/><rect x="704.0" y="182.0" width="24.0" height="24.0" fill="rgb(255,255,255)" stroke="#e6e6ee" stroke-width="0.4"/><rect x="728.0" y="182.0" width="24.0" height="24.0" fill="rgb(255,255,255)" stroke="#e6e6ee" stroke-width="0.4"/><rect x="752.0" y="182.0" width="24.0" height="24.0" fill="rgb(255,255,255)" stroke="#e6e6ee" stroke-width="0.4"/><rect x="776.0" y="182.0" width="24.0" height="24.0" fill="rgb(255,255,255)" stroke="#e6e6ee" stroke-width="0.4"/><rect x="800.0" y="182.0" width="24.0" height="24.0" fill="rgb(255,255,255)" stroke="#e6e6ee" stroke-width="0.4"/><rect x="824.0" y="182.0" width="24.0" height="24.0" fill="rgb(255,255,255)" stroke="#e6e6ee" stroke-width="0.4"/><rect x="656.0" y="206.0" width="24.0" height="24.0" fill="rgb(255,255,255)" stroke="#e6e6ee" stroke-width="0.4"/><rect x="680.0" y="206.0" width="24.0" height="24.0" fill="rgb(255,60,60)" stroke="#e6e6ee" stroke-width="0.4"/><rect x="704.0" y="206.0" width="24.0" height="24.0" fill="rgb(255,255,255)" stroke="#e6e6ee" stroke-width="0.4"/><rect x="728.0" y="206.0" width="24.0" height="24.0" fill="rgb(255,60,60)" stroke="#e6e6ee" stroke-width="0.4"/><rect x="752.0" y="206.0" width="24.0" height="24.0" fill="rgb(255,255,255)" stroke="#e6e6ee" stroke-width="0.4"/><rect x="776.0" y="206.0" width="24.0" height="24.0" fill="rgb(255,60,60)" stroke="#e6e6ee" stroke-width="0.4"/><rect x="800.0" y="206.0" width="24.0" height="24.0" fill="rgb(255,255,255)" stroke="#e6e6ee" stroke-width="0.4"/><rect x="824.0" y="206.0" width="24.0" height="24.0" fill="rgb(255,60,60)" stroke="#e6e6ee" stroke-width="0.4"/><rect x="656.0" y="230.0" width="24.0" height="24.0" fill="rgb(255,255,255)" stroke="#e6e6ee" stroke-width="0.4"/><rect x="680.0" y="230.0" width="24.0" height="24.0" fill="rgb(255,255,255)" stroke="#e6e6ee" stroke-width="0.4"/><rect x="704.0" y="230.0" width="24.0" height="24.0" fill="rgb(255,255,255)" stroke="#e6e6ee" stroke-width="0.4"/><rect x="728.0" y="230.0" width="24.0" height="24.0" fill="rgb(255,255,255)" stroke="#e6e6ee" stroke-width="0.4"/><rect x="752.0" y="230.0" width="24.0" height="24.0" fill="rgb(255,255,255)" stroke="#e6e6ee" stroke-width="0.4"/><rect x="776.0" y="230.0" width="24.0" height="24.0" fill="rgb(255,255,255)" stroke="#e6e6ee" stroke-width="0.4"/><rect x="800.0" y="230.0" width="24.0" height="24.0" fill="rgb(255,255,255)" stroke="#e6e6ee" stroke-width="0.4"/><rect x="824.0" y="230.0" width="24.0" height="24.0" fill="rgb(255,255,255)" stroke="#e6e6ee" stroke-width="0.4"/><rect x="656.0" y="254.0" width="24.0" height="24.0" fill="rgb(255,255,255)" stroke="#e6e6ee" stroke-width="0.4"/><rect x="680.0" y="254.0" width="24.0" height="24.0" fill="rgb(255,60,60)" stroke="#e6e6ee" stroke-width="0.4"/><rect x="704.0" y="254.0" width="24.0" height="24.0" fill="rgb(255,255,255)" stroke="#e6e6ee" stroke-width="0.4"/><rect x="728.0" y="254.0" width="24.0" height="24.0" fill="rgb(255,60,60)" stroke="#e6e6ee" stroke-width="0.4"/><rect x="752.0" y="254.0" width="24.0" height="24.0" fill="rgb(255,255,255)" stroke="#e6e6ee" stroke-width="0.4"/><rect x="776.0" y="254.0" width="24.0" height="24.0" fill="rgb(255,60,60)" stroke="#e6e6ee" stroke-width="0.4"/><rect x="800.0" y="254.0" width="24.0" height="24.0" fill="rgb(255,255,255)" stroke="#e6e6ee" stroke-width="0.4"/><rect x="824.0" y="254.0" width="24.0" height="24.0" fill="rgb(255,60,60)" stroke="#e6e6ee" stroke-width="0.4"/><rect x="656.0" y="86.0" width="192.0" height="192.0" fill="none" stroke="#333" stroke-width="1"/><text x="656.0" y="294.0" font-size="11" font-weight="600" fill="#222">null mode 3  (λ = -6.2e-17)</text><text x="656.0" y="308.0" font-size="10" fill="#777">peak |v| = 2.500e-1</text>
</svg>
