<svg xmlns="http://www.w3.org/2000/svg" width="820" height="380" viewBox="0 0 820 380" font-family="ui-monospace,Menlo,monospace">
<rect width="100%" height="100%" fill="#fbfbfd"/>
<text x="18" y="26" font-size="16" font-weight="700" fill="#111">erosion.rs — singular spectrum of one full epoch</text>
<text x="18" y="46" font-size="11" fill="#555">∂(Δh)/∂h over the free (interior, supra-sea) DOF. No cliff into the floor: no null space.</text>
<rect x="70" y="74" width="730" height="260" fill="#fff" stroke="#ccc"/>
<line x1="70" y1="327.3" x2="800.0" y2="327.3" stroke="#eee"/><text x="64.0" y="330.3" font-size="9" fill="#888" text-anchor="end">1e-4</text><line x1="70" y1="265.7" x2="800.0" y2="265.7" stroke="#eee"/><text x="64.0" y="268.7" font-size="9" fill="#888" text-anchor="end">1e-3</text><line x1="70" y1="204.2" x2="800.0" y2="204.2" stroke="#eee"/><text x="64.0" y="207.2" font-size="9" fill="#888" text-anchor="end">1e-2</text><line x1="70" y1="142.6" x2="800.0" y2="142.6" stroke="#eee"/><text x="64.0" y="145.6" font-size="9" fill="#888" text-anchor="end">1e-1</text><line x1="70" y1="81.1" x2="800.0" y2="81.1" stroke="#eee"/><text x="64.0" y="84.1" font-size="9" fill="#888" text-anchor="end">1e0</text><circle cx="71.9" cy="301.8" r="2.6" fill="#c0392b" opacity="0.85"/><circle cx="75.6" cy="271.9" r="2.6" fill="#c0392b" opacity="0.85"/><circle cx="79.3" cy="263.6" r="2.6" fill="#c0392b" opacity="0.85"/><circle cx="83.0" cy="260.6" r="2.6" fill="#c0392b" opacity="0.85"/><circle cx="86.8" cy="252.0" r="2.6" fill="#c0392b" opacity="0.85"/><circle cx="90.5" cy="246.7" r="2.6" fill="#c0392b" opacity="0.85"/><circle cx="94.2" cy="235.2" r="2.6" fill="#c0392b" opacity="0.85"/><circle cx="97.9" cy="233.9" r="2.6" fill="#c0392b" opacity="0.85"/><circle cx="101.7" cy="230.9" r="2.6" fill="#c0392b" opacity="0.85"/><circle cx="105.4" cy="226.8" r="2.6" fill="#c0392b" opacity="0.85"/><circle cx="109.1" cy="222.9" r="2.6" fill="#c0392b" opacity="0.85"/><circle cx="112.8" cy="218.5" r="2.6" fill="#c0392b" opacity="0.85"/><circle cx="116.6" cy="213.3" r="2.6" fill="#c0392b" opacity="0.85"/><circle cx="120.3" cy="212.3" r="2.6" fill="#c0392b" opacity="0.85"/><circle cx="124.0" cy="210.5" r="2.6" fill="#c0392b" opacity="0.85"/><circle cx="127.7" cy="207.3" r="2.6" fill="#c0392b" opacity="0.85"/><circle cx="131.5" cy="205.6" r="2.6" fill="#c0392b" opacity="0.85"/><circle cx="135.2" cy="204.7" r="2.6" fill="#c0392b" opacity="0.85"/><circle cx="138.9" cy="204.4" r="2.6" fill="#c0392b" opacity="0.85"/><circle cx="142.6" cy="202.6" r="2.6" fill="#c0392b" opacity="0.85"/><circle cx="146.4" cy="200.5" r="2.6" fill="#c0392b" opacity="0.85"/><circle cx="150.1" cy="199.1" r="2.6" fill="#c0392b" opacity="0.85"/><circle cx="153.8" cy="197.9" r="2.6" fill="#c0392b" opacity="0.85"/><circle cx="157.5" cy="197.7" r="2.6" fill="#c0392b" opacity="0.85"/><circle cx="161.2" cy="196.4" r="2.6" fill="#c0392b" opacity="0.85"/><circle cx="165.0" cy="195.3" r="2.6" fill="#c0392b" opacity="0.85"/><circle cx="168.7" cy="194.6" r="2.6" fill="#c0392b" opacity="0.85"/><circle cx="172.4" cy="193.0" r="2.6" fill="#c0392b" opacity="0.85"/><circle cx="176.1" cy="192.8" r="2.6" fill="#c0392b" opacity="0.85"/><circle cx="179.9" cy="191.8" r="2.6" fill="#c0392b" opacity="0.85"/><circle cx="183.6" cy="191.4" r="2.6" fill="#c0392b" opacity="0.85"/><circle cx="187.3" cy="189.8" r="2.6" fill="#c0392b" opacity="0.85"/><circle cx="191.0" cy="189.1" r="2.6" fill="#c0392b" opacity="0.85"/><circle cx="194.8" cy="188.5" r="2.6" fill="#c0392b" opacity="0.85"/><circle cx="198.5" cy="187.7" r="2.6" fill="#c0392b" opacity="0.85"/><circle cx="202.2" cy="186.6" r="2.6" fill="#c0392b" opacity="0.85"/><circle cx="205.9" cy="185.7" r="2.6" fill="#c0392b" opacity="0.85"/><circle cx="209.7" cy="185.2" r="2.6" fill="#c0392b" opacity="0.85"/><circle cx="213.4" cy="184.1" r="2.6" fill="#c0392b" opacity="0.85"/><circle cx="217.1" cy="183.7" r="2.6" fill="#c0392b" opacity="0.85"/><circle cx="220.8" cy="183.3" r="2.6" fill="#c0392b" opacity="0.85"/><circle cx="224.6" cy="182.2" r="2.6" fill="#c0392b" opacity="0.85"/><circle cx="228.3" cy="181.7" r="2.6" fill="#c0392b" opacity="0.85"/><circle cx="232.0" cy="181.1" r="2.6" fill="#c0392b" opacity="0.85"/><circle cx="235.7" cy="181.1" r="2.6" fill="#c0392b" opacity="0.85"/><circle cx="239.5" cy="180.7" r="2.6" fill="#c0392b" opacity="0.85"/><circle cx="243.2" cy="179.8" r="2.6" fill="#c0392b" opacity="0.85"/><circle cx="246.9" cy="179.1" r="2.6" fill="#c0392b" opacity="0.85"/><circle cx="250.6" cy="178.6" r="2.6" fill="#c0392b" opacity="0.85"/><circle cx="254.4" cy="178.4" r="2.6" fill="#c0392b" opacity="0.85"/><circle cx="258.1" cy="177.9" r="2.6" fill="#c0392b" opacity="0.85"/><circle cx="261.8" cy="177.6" r="2.6" fill="#c0392b" opacity="0.85"/><circle cx="265.5" cy="176.9" r="2.6" fill="#c0392b" opacity="0.85"/><circle cx="269.3" cy="176.7" r="2.6" fill="#c0392b" opacity="0.85"/><circle cx="273.0" cy="176.4" r="2.6" fill="#c0392b" opacity="0.85"/><circle cx="276.7" cy="175.8" r="2.6" fill="#c0392b" opacity="0.85"/><circle cx="280.4" cy="175.5" r="2.6" fill="#c0392b" opacity="0.85"/><circle cx="284.2" cy="175.3" r="2.6" fill="#c0392b" opacity="0.85"/><circle cx="287.9" cy="174.9" r="2.6" fill="#c0392b" opacity="0.85"/><circle cx="291.6" cy="174.7" r="2.6" fill="#c0392b" opacity="0.85"/><circle cx="295.3" cy="174.2" r="2.6" fill="#c0392b" opacity="0.85"/><circle cx="299.1" cy="173.9" r="2.6" fill="#c0392b" opacity="0.85"/><circle cx="302.8" cy="173.3" r="2.6" fill="#c0392b" opacity="0.85"/><circle cx="306.5" cy="173.2" r="2.6" fill="#c0392b" opacity="0.85"/><circle cx="310.2" cy="172.4" r="2.6" fill="#c0392b" opacity="0.85"/><circle cx="314.0" cy="172.4" r="2.6" fill="#c0392b" opacity="0.85"/><circle cx="317.7" cy="172.0" r="2.6" fill="#c0392b" opacity="0.85"/><circle cx="321.4" cy="171.6" r="2.6" fill="#c0392b" opacity="0.85"/><circle cx="325.1" cy="171.2" r="2.6" fill="#c0392b" opacity="0.85"/><circle cx="328.9" cy="171.0" r="2.6" fill="#c0392b" opacity="0.85"/><circle cx="332.6" cy="170.5" r="2.6" fill="#c0392b" opacity="0.85"/><circle cx="336.3" cy="170.1" r="2.6" fill="#c0392b" opacity="0.85"/><circle cx="340.0" cy="169.7" r="2.6" fill="#c0392b" opacity="0.85"/><circle cx="343.8" cy="169.3" r="2.6" fill="#c0392b" opacity="0.85"/><circle cx="347.5" cy="169.2" r="2.6" fill="#c0392b" opacity="0.85"/><circle cx="351.2" cy="168.7" r="2.6" fill="#c0392b" opacity="0.85"/><circle cx="354.9" cy="168.6" r="2.6" fill="#c0392b" opacity="0.85"/><circle cx="358.6" cy="168.3" r="2.6" fill="#c0392b" opacity="0.85"/><circle cx="362.4" cy="168.2" r="2.6" fill="#c0392b" opacity="0.85"/><circle cx="366.1" cy="167.8" r="2.6" fill="#c0392b" opacity="0.85"/><circle cx="369.8" cy="167.4" r="2.6" fill="#c0392b" opacity="0.85"/><circle cx="373.5" cy="167.0" r="2.6" fill="#c0392b" opacity="0.85"/><circle cx="377.3" cy="166.6" r="2.6" fill="#c0392b" opacity="0.85"/><circle cx="381.0" cy="166.2" r="2.6" fill="#c0392b" opacity="0.85"/><circle cx="384.7" cy="165.9" r="2.6" fill="#c0392b" opacity="0.85"/><circle cx="388.4" cy="165.9" r="2.6" fill="#c0392b" opacity="0.85"/><circle cx="392.2" cy="165.5" r="2.6" fill="#c0392b" opacity="0.85"/><circle cx="395.9" cy="164.9" r="2.6" fill="#c0392b" opacity="0.85"/><circle cx="399.6" cy="164.4" r="2.6" fill="#c0392b" opacity="0.85"/><circle cx="403.3" cy="164.1" r="2.6" fill="#c0392b" opacity="0.85"/><circle cx="407.1" cy="164.1" r="2.6" fill="#c0392b" opacity="0.85"/><circle cx="410.8" cy="163.8" r="2.6" fill="#c0392b" opacity="0.85"/><circle cx="414.5" cy="163.0" r="2.6" fill="#c0392b" opacity="0.85"/><circle cx="418.2" cy="162.9" r="2.6" fill="#c0392b" opacity="0.85"/><circle cx="422.0" cy="162.8" r="2.6" fill="#c0392b" opacity="0.85"/><circle cx="425.7" cy="162.3" r="2.6" fill="#c0392b" opacity="0.85"/><circle cx="429.4" cy="162.2" r="2.6" fill="#c0392b" opacity="0.85"/><circle cx="433.1" cy="162.0" r="2.6" fill="#c0392b" opacity="0.85"/><circle cx="436.9" cy="161.4" r="2.6" fill="#c0392b" opacity="0.85"/><circle cx="440.6" cy="161.2" r="2.6" fill="#c0392b" opacity="0.85"/><circle cx="444.3" cy="161.0" r="2.6" fill="#c0392b" opacity="0.85"/><circle cx="448.0" cy="160.5" r="2.6" fill="#c0392b" opacity="0.85"/><circle cx="451.8" cy="160.2" r="2.6" fill="#c0392b" opacity="0.85"/><circle cx="455.5" cy="160.0" r="2.6" fill="#c0392b" opacity="0.85"/><circle cx="459.2" cy="159.9" r="2.6" fill="#c0392b" opacity="0.85"/><circle cx="462.9" cy="159.7" r="2.6" fill="#c0392b" opacity="0.85"/><circle cx="466.7" cy="159.3" r="2.6" fill="#c0392b" opacity="0.85"/><circle cx="470.4" cy="158.9" r="2.6" fill="#c0392b" opacity="0.85"/><circle cx="474.1" cy="158.8" r="2.6" fill="#c0392b" opacity="0.85"/><circle cx="477.8" cy="158.7" r="2.6" fill="#c0392b" opacity="0.85"/><circle cx="481.6" cy="158.3" r="2.6" fill="#c0392b" opacity="0.85"/><circle cx="485.3" cy="157.9" r="2.6" fill="#c0392b" opacity="0.85"/><circle cx="489.0" cy="157.7" r="2.6" fill="#c0392b" opacity="0.85"/><circle cx="492.7" cy="157.4" r="2.6" fill="#c0392b" opacity="0.85"/><circle cx="496.5" cy="157.2" r="2.6" fill="#c0392b" opacity="0.85"/><circle cx="500.2" cy="157.1" r="2.6" fill="#c0392b" opacity="0.85"/><circle cx="503.9" cy="156.9" r="2.6" fill="#c0392b" opacity="0.85"/><circle cx="507.6" cy="156.6" r="2.6" fill="#c0392b" opacity="0.85"/><circle cx="511.4" cy="156.2" r="2.6" fill="#c0392b" opacity="0.85"/><circle cx="515.1" cy="155.9" r="2.6" fill="#c0392b" opacity="0.85"/><circle cx="518.8" cy="155.8" r="2.6" fill="#c0392b" opacity="0.85"/><circle cx="522.5" cy="155.4" r="2.6" fill="#c0392b" opacity="0.85"/><circle cx="526.2" cy="155.3" r="2.6" fill="#c0392b" opacity="0.85"/><circle cx="530.0" cy="155.0" r="2.6" fill="#c0392b" opacity="0.85"/><circle cx="533.7" cy="154.9" r="2.6" fill="#c0392b" opacity="0.85"/><circle cx="537.4" cy="154.4" r="2.6" fill="#c0392b" opacity="0.85"/><circle cx="541.1" cy="154.1" r="2.6" fill="#c0392b" opacity="0.85"/><circle cx="544.9" cy="153.8" r="2.6" fill="#c0392b" opacity="0.85"/><circle cx="548.6" cy="153.7" r="2.6" fill="#c0392b" opacity="0.85"/><circle cx="552.3" cy="153.5" r="2.6" fill="#c0392b" opacity="0.85"/><circle cx="556.0" cy="153.2" r="2.6" fill="#c0392b" opacity="0.85"/><circle cx="559.8" cy="153.0" r="2.6" fill="#c0392b" opacity="0.85"/><circle cx="563.5" cy="152.2" r="2.6" fill="#c0392b" opacity="0.85"/><circle cx="567.2" cy="151.9" r="2.6" fill="#c0392b" opacity="0.85"/><circle cx="570.9" cy="151.8" r="2.6" fill="#c0392b" opacity="0.85"/><circle cx="574.7" cy="151.7" r="2.6" fill="#c0392b" opacity="0.85"/><circle cx="578.4" cy="151.6" r="2.6" fill="#c0392b" opacity="0.85"/><circle cx="582.1" cy="151.5" r="2.6" fill="#c0392b" opacity="0.85"/><circle cx="585.8" cy="151.3" r="2.6" fill="#c0392b" opacity="0.85"/><circle cx="589.6" cy="151.0" r="2.6" fill="#c0392b" opacity="0.85"/><circle cx="593.3" cy="150.8" r="2.6" fill="#c0392b" opacity="0.85"/><circle cx="597.0" cy="150.7" r="2.6" fill="#c0392b" opacity="0.85"/><circle cx="600.7" cy="150.2" r="2.6" fill="#c0392b" opacity="0.85"/><circle cx="604.5" cy="149.9" r="2.6" fill="#c0392b" opacity="0.85"/><circle cx="608.2" cy="149.8" r="2.6" fill="#c0392b" opacity="0.85"/><circle cx="611.9" cy="149.5" r="2.6" fill="#c0392b" opacity="0.85"/><circle cx="615.6" cy="149.4" r="2.6" fill="#c0392b" opacity="0.85"/><circle cx="619.4" cy="149.0" r="2.6" fill="#c0392b" opacity="0.85"/><circle cx="623.1" cy="148.8" r="2.6" fill="#c0392b" opacity="0.85"/><circle cx="626.8" cy="148.5" r="2.6" fill="#c0392b" opacity="0.85"/><circle cx="630.5" cy="148.1" r="2.6" fill="#c0392b" opacity="0.85"/><circle cx="634.3" cy="147.8" r="2.6" fill="#c0392b" opacity="0.85"/><circle cx="638.0" cy="147.5" r="2.6" fill="#c0392b" opacity="0.85"/><circle cx="641.7" cy="147.3" r="2.6" fill="#c0392b" opacity="0.85"/><circle cx="645.4" cy="147.1" r="2.6" fill="#c0392b" opacity="0.85"/><circle cx="649.2" cy="146.6" r="2.6" fill="#c0392b" opacity="0.85"/><circle cx="652.9" cy="146.6" r="2.6" fill="#c0392b" opacity="0.85"/><circle cx="656.6" cy="146.4" r="2.6" fill="#c0392b" opacity="0.85"/><circle cx="660.3" cy="145.9" r="2.6" fill="#c0392b" opacity="0.85"/><circle cx="664.1" cy="145.9" r="2.6" fill="#c0392b" opacity="0.85"/><circle cx="667.8" cy="145.5" r="2.6" fill="#c0392b" opacity="0.85"/><circle cx="671.5" cy="145.2" r="2.6" fill="#c0392b" opacity="0.85"/><circle cx="675.2" cy="144.6" r="2.6" fill="#c0392b" opacity="0.85"/><circle cx="679.0" cy="144.1" r="2.6" fill="#c0392b" opacity="0.85"/><circle cx="682.7" cy="143.9" r="2.6" fill="#c0392b" opacity="0.85"/><circle cx="686.4" cy="143.4" r="2.6" fill="#c0392b" opacity="0.85"/><circle cx="690.1" cy="143.3" r="2.6" fill="#c0392b" opacity="0.85"/><circle cx="693.9" cy="142.9" r="2.6" fill="#c0392b" opacity="0.85"/><circle cx="697.6" cy="142.5" r="2.6" fill="#c0392b" opacity="0.85"/><circle cx="701.3" cy="141.9" r="2.6" fill="#c0392b" opacity="0.85"/><circle cx="705.0" cy="140.9" r="2.6" fill="#c0392b" opacity="0.85"/><circle cx="708.8" cy="140.0" r="2.6" fill="#c0392b" opacity="0.85"/><circle cx="712.5" cy="139.7" r="2.6" fill="#c0392b" opacity="0.85"/><circle cx="716.2" cy="139.6" r="2.6" fill="#c0392b" opacity="0.85"/><circle cx="719.9" cy="138.7" r="2.6" fill="#c0392b" opacity="0.85"/><circle cx="723.6" cy="138.4" r="2.6" fill="#c0392b" opacity="0.85"/><circle cx="727.4" cy="137.6" r="2.6" fill="#c0392b" opacity="0.85"/><circle cx="731.1" cy="136.5" r="2.6" fill="#c0392b" opacity="0.85"/><circle cx="734.8" cy="135.5" r="2.6" fill="#c0392b" opacity="0.85"/><circle cx="738.5" cy="135.2" r="2.6" fill="#c0392b" opacity="0.85"/><circle cx="742.3" cy="134.2" r="2.6" fill="#c0392b" opacity="0.85"/><circle cx="746.0" cy="133.8" r="2.6" fill="#c0392b" opacity="0.85"/><circle cx="749.7" cy="133.3" r="2.6" fill="#c0392b" opacity="0.85"/><circle cx="753.4" cy="131.2" r="2.6" fill="#c0392b" opacity="0.85"/><circle cx="757.2" cy="126.2" r="2.6" fill="#c0392b" opacity="0.85"/><circle cx="760.9" cy="121.7" r="2.6" fill="#c0392b" opacity="0.85"/><circle cx="764.6" cy="120.7" r="2.6" fill="#c0392b" opacity="0.85"/><circle cx="768.3" cy="119.4" r="2.6" fill="#c0392b" opacity="0.85"/><circle cx="772.1" cy="116.1" r="2.6" fill="#c0392b" opacity="0.85"/><circle cx="775.8" cy="115.1" r="2.6" fill="#c0392b" opacity="0.85"/><circle cx="779.5" cy="114.1" r="2.6" fill="#c0392b" opacity="0.85"/><circle cx="783.2" cy="113.8" r="2.6" fill="#c0392b" opacity="0.85"/><circle cx="787.0" cy="111.3" r="2.6" fill="#c0392b" opacity="0.85"/><circle cx="790.7" cy="110.2" r="2.6" fill="#c0392b" opacity="0.85"/><circle cx="794.4" cy="107.6" r="2.6" fill="#c0392b" opacity="0.85"/><circle cx="798.1" cy="103.4" r="2.6" fill="#c0392b" opacity="0.85"/><circle cx="250.0" cy="62.0" r="4" fill="#c0392b"/><text x="259.0" y="66.0" font-size="10" fill="#333">full epoch (ε = 1 m)</text><text x="435.0" y="366.0" font-size="10" fill="#777" text-anchor="middle">eigenvalue index (ascending |λ|)</text>
<text x="16" y="204.0" font-size="10" fill="#777" transform="rotate(-90 16 204.0)" text-anchor="middle">|λ|  (log)</text>
</svg>
