<svg xmlns="http://www.w3.org/2000/svg" width="820" height="380" viewBox="0 0 820 380" font-family="ui-monospace,Menlo,monospace">
<rect width="100%" height="100%" fill="#fbfbfd"/>
<text x="18" y="26" font-size="16" font-weight="700" fill="#111">§5 — the force a depth field feels: staggered vs collocated, same operator</text>
<text x="18" y="46" font-size="11" fill="#555">Singular values of G = ∂(flux rate)/∂(depth). The collocated scheme drops FOUR into the numerical floor; the staggered scheme drops exactly ONE (the constant). Those three extra zeros are the whole content of α_stab.</text>
<rect x="70" y="74" width="730" height="260" fill="#fff" stroke="#ccc"/>
<line x1="70" y1="334.0" x2="800.0" y2="334.0" stroke="#eee"/><text x="64.0" y="337.0" font-size="9" fill="#888" text-anchor="end">1e-14</text><line x1="70" y1="316.9" x2="800.0" y2="316.9" stroke="#eee"/><text x="64.0" y="319.9" font-size="9" fill="#888" text-anchor="end">1e-13</text><line x1="70" y1="299.9" x2="800.0" y2="299.9" stroke="#eee"/><text x="64.0" y="302.9" font-size="9" fill="#888" text-anchor="end">1e-12</text><line x1="70" y1="282.8" x2="800.0" y2="282.8" stroke="#eee"/><text x="64.0" y="285.8" font-size="9" fill="#888" text-anchor="end">1e-11</text><line x1="70" y1="265.8" x2="800.0" y2="265.8" stroke="#eee"/><text x="64.0" y="268.8" font-size="9" fill="#888" text-anchor="end">1e-10</text><line x1="70" y1="248.7" x2="800.0" y2="248.7" stroke="#eee"/><text x="64.0" y="251.7" font-size="9" fill="#888" text-anchor="end">1e-9</text><line x1="70" y1="231.6" x2="800.0" y2="231.6" stroke="#eee"/><text x="64.0" y="234.6" font-size="9" fill="#888" text-anchor="end">1e-8</text><line x1="70" y1="214.6" x2="800.0" y2="214.6" stroke="#eee"/><text x="64.0" y="217.6" font-size="9" fill="#888" text-anchor="end">1e-7</text><line x1="70" y1="197.5" x2="800.0" y2="197.5" stroke="#eee"/><text x="64.0" y="200.5" font-size="9" fill="#888" text-anchor="end">1e-6</text><line x1="70" y1="180.4" x2="800.0" y2="180.4" stroke="#eee"/><text x="64.0" y="183.4" font-size="9" fill="#888" text-anchor="end">1e-5</text><line x1="70" y1="163.4" x2="800.0" y2="163.4" stroke="#eee"/><text x="64.0" y="166.4" font-size="9" fill="#888" text-anchor="end">1e-4</text><line x1="70" y1="146.3" x2="800.0" y2="146.3" stroke="#eee"/><text x="64.0" y="149.3" font-size="9" fill="#888" text-anchor="end">1e-3</text><line x1="70" y1="129.3" x2="800.0" y2="129.3" stroke="#eee"/><text x="64.0" y="132.3" font-size="9" fill="#888" text-anchor="end">1e-2</text><line x1="70" y1="112.2" x2="800.0" y2="112.2" stroke="#eee"/><text x="64.0" y="115.2" font-size="9" fill="#888" text-anchor="end">1e-1</text><line x1="70" y1="95.1" x2="800.0" y2="95.1" stroke="#eee"/><text x="64.0" y="98.1" font-size="9" fill="#888" text-anchor="end">1e0</text><line x1="70" y1="78.1" x2="800.0" y2="78.1" stroke="#eee"/><text x="64.0" y="81.1" font-size="9" fill="#888" text-anchor="end">1e1</text><circle cx="72.5" cy="334.0" r="2.6" fill="#c0392b" opacity="0.85"/><circle cx="77.6" cy="334.0" r="2.6" fill="#c0392b" opacity="0.85"/><circle cx="82.7" cy="334.0" r="2.6" fill="#c0392b" opacity="0.85"/><circle cx="87.7" cy="334.0" r="2.6" fill="#c0392b" opacity="0.85"/><circle cx="92.8" cy="95.0" r="2.6" fill="#c0392b" opacity="0.85"/><circle cx="97.9" cy="95.0" r="2.6" fill="#c0392b" opacity="0.85"/><circle cx="103.0" cy="95.0" r="2.6" fill="#c0392b" opacity="0.85"/><circle cx="108.0" cy="95.0" r="2.6" fill="#c0392b" opacity="0.85"/><circle cx="113.1" cy="95.0" r="2.6" fill="#c0392b" opacity="0.85"/><circle cx="118.2" cy="95.0" r="2.6" fill="#c0392b" opacity="0.85"/><circle cx="123.2" cy="95.0" r="2.6" fill="#c0392b" opacity="0.85"/><circle cx="128.3" cy="95.0" r="2.6" fill="#c0392b" opacity="0.85"/><circle cx="133.4" cy="95.0" r="2.6" fill="#c0392b" opacity="0.85"/><circle cx="138.4" cy="95.0" r="2.6" fill="#c0392b" opacity="0.85"/><circle cx="143.5" cy="95.0" r="2.6" fill="#c0392b" opacity="0.85"/><circle cx="148.6" cy="95.0" r="2.6" fill="#c0392b" opacity="0.85"/><circle cx="153.6" cy="95.0" r="2.6" fill="#c0392b" opacity="0.85"/><circle cx="158.7" cy="95.0" r="2.6" fill="#c0392b" opacity="0.85"/><circle cx="163.8" cy="95.0" r="2.6" fill="#c0392b" opacity="0.85"/><circle cx="168.9" cy="95.0" r="2.6" fill="#c0392b" opacity="0.85"/><circle cx="173.9" cy="92.4" r="2.6" fill="#c0392b" opacity="0.85"/><circle cx="179.0" cy="92.4" r="2.6" fill="#c0392b" opacity="0.85"/><circle cx="184.1" cy="92.4" r="2.6" fill="#c0392b" opacity="0.85"/><circle cx="189.1" cy="92.4" r="2.6" fill="#c0392b" opacity="0.85"/><circle cx="194.2" cy="92.4" r="2.6" fill="#c0392b" opacity="0.85"/><circle cx="199.3" cy="92.4" r="2.6" fill="#c0392b" opacity="0.85"/><circle cx="204.3" cy="92.4" r="2.6" fill="#c0392b" opacity="0.85"/><circle cx="209.4" cy="92.4" r="2.6" fill="#c0392b" opacity="0.85"/><circle cx="214.5" cy="92.4" r="2.6" fill="#c0392b" opacity="0.85"/><circle cx="219.5" cy="92.4" r="2.6" fill="#c0392b" opacity="0.85"/><circle cx="224.6" cy="92.4" r="2.6" fill="#c0392b" opacity="0.85"/><circle cx="229.7" cy="92.4" r="2.6" fill="#c0392b" opacity="0.85"/><circle cx="234.8" cy="92.4" r="2.6" fill="#c0392b" opacity="0.85"/><circle cx="239.8" cy="92.4" r="2.6" fill="#c0392b" opacity="0.85"/><circle cx="244.9" cy="92.4" r="2.6" fill="#c0392b" opacity="0.85"/><circle cx="250.0" cy="92.4" r="2.6" fill="#c0392b" opacity="0.85"/><circle cx="255.0" cy="90.9" r="2.6" fill="#c0392b" opacity="0.85"/><circle cx="260.1" cy="90.9" r="2.6" fill="#c0392b" opacity="0.85"/><circle cx="265.2" cy="90.9" r="2.6" fill="#c0392b" opacity="0.85"/><circle cx="270.2" cy="90.9" r="2.6" fill="#c0392b" opacity="0.85"/><circle cx="275.3" cy="90.9" r="2.6" fill="#c0392b" opacity="0.85"/><circle cx="280.4" cy="90.9" r="2.6" fill="#c0392b" opacity="0.85"/><circle cx="285.5" cy="90.9" r="2.6" fill="#c0392b" opacity="0.85"/><circle cx="290.5" cy="90.9" r="2.6" fill="#c0392b" opacity="0.85"/><circle cx="295.6" cy="90.9" r="2.6" fill="#c0392b" opacity="0.85"/><circle cx="300.7" cy="90.9" r="2.6" fill="#c0392b" opacity="0.85"/><circle cx="305.7" cy="90.9" r="2.6" fill="#c0392b" opacity="0.85"/><circle cx="310.8" cy="90.9" r="2.6" fill="#c0392b" opacity="0.85"/><circle cx="315.9" cy="90.9" r="2.6" fill="#c0392b" opacity="0.85"/><circle cx="320.9" cy="90.9" r="2.6" fill="#c0392b" opacity="0.85"/><circle cx="326.0" cy="90.9" r="2.6" fill="#c0392b" opacity="0.85"/><circle cx="331.1" cy="90.9" r="2.6" fill="#c0392b" opacity="0.85"/><circle cx="336.1" cy="89.8" r="2.6" fill="#c0392b" opacity="0.85"/><circle cx="341.2" cy="89.8" r="2.6" fill="#c0392b" opacity="0.85"/><circle cx="346.3" cy="89.8" r="2.6" fill="#c0392b" opacity="0.85"/><circle cx="351.4" cy="89.8" r="2.6" fill="#c0392b" opacity="0.85"/><circle cx="356.4" cy="89.8" r="2.6" fill="#c0392b" opacity="0.85"/><circle cx="361.5" cy="89.8" r="2.6" fill="#c0392b" opacity="0.85"/><circle cx="366.6" cy="89.8" r="2.6" fill="#c0392b" opacity="0.85"/><circle cx="371.6" cy="89.8" r="2.6" fill="#c0392b" opacity="0.85"/><circle cx="376.7" cy="89.8" r="2.6" fill="#c0392b" opacity="0.85"/><circle cx="381.8" cy="89.8" r="2.6" fill="#c0392b" opacity="0.85"/><circle cx="386.8" cy="89.8" r="2.6" fill="#c0392b" opacity="0.85"/><circle cx="391.9" cy="89.8" r="2.6" fill="#c0392b" opacity="0.85"/><circle cx="397.0" cy="89.8" r="2.6" fill="#c0392b" opacity="0.85"/><circle cx="402.0" cy="89.8" r="2.6" fill="#c0392b" opacity="0.85"/><circle cx="407.1" cy="89.8" r="2.6" fill="#c0392b" opacity="0.85"/><circle cx="412.2" cy="89.8" r="2.6" fill="#c0392b" opacity="0.85"/><circle cx="417.3" cy="89.8" r="2.6" fill="#c0392b" opacity="0.85"/><circle cx="422.3" cy="89.8" r="2.6" fill="#c0392b" opacity="0.85"/><circle cx="427.4" cy="89.8" r="2.6" fill="#c0392b" opacity="0.85"/><circle cx="432.5" cy="89.8" r="2.6" fill="#c0392b" opacity="0.85"/><circle cx="437.5" cy="89.8" r="2.6" fill="#c0392b" opacity="0.85"/><circle cx="442.6" cy="89.8" r="2.6" fill="#c0392b" opacity="0.85"/><circle cx="447.7" cy="89.8" r="2.6" fill="#c0392b" opacity="0.85"/><circle cx="452.7" cy="89.8" r="2.6" fill="#c0392b" opacity="0.85"/><circle cx="457.8" cy="89.8" r="2.6" fill="#c0392b" opacity="0.85"/><circle cx="462.9" cy="89.8" r="2.6" fill="#c0392b" opacity="0.85"/><circle cx="468.0" cy="89.8" r="2.6" fill="#c0392b" opacity="0.85"/><circle cx="473.0" cy="89.8" r="2.6" fill="#c0392b" opacity="0.85"/><circle cx="478.1" cy="89.8" r="2.6" fill="#c0392b" opacity="0.85"/><circle cx="483.2" cy="89.8" r="2.6" fill="#c0392b" opacity="0.85"/><circle cx="488.2" cy="89.8" r="2.6" fill="#c0392b" opacity="0.85"/><circle cx="493.3" cy="89.8" r="2.6" fill="#c0392b" opacity="0.85"/><circle cx="498.4" cy="89.8" r="2.6" fill="#c0392b" opacity="0.85"/><circle cx="503.4" cy="89.8" r="2.6" fill="#c0392b" opacity="0.85"/><circle cx="508.5" cy="89.8" r="2.6" fill="#c0392b" opacity="0.85"/><circle cx="513.6" cy="89.8" r="2.6" fill="#c0392b" opacity="0.85"/><circle cx="518.6" cy="89.8" r="2.6" fill="#c0392b" opacity="0.85"/><circle cx="523.7" cy="89.8" r="2.6" fill="#c0392b" opacity="0.85"/><circle cx="528.8" cy="89.8" r="2.6" fill="#c0392b" opacity="0.85"/><circle cx="533.9" cy="89.8" r="2.6" fill="#c0392b" opacity="0.85"/><circle cx="538.9" cy="89.0" r="2.6" fill="#c0392b" opacity="0.85"/><circle cx="544.0" cy="89.0" r="2.6" fill="#c0392b" opacity="0.85"/><circle cx="549.1" cy="89.0" r="2.6" fill="#c0392b" opacity="0.85"/><circle cx="554.1" cy="89.0" r="2.6" fill="#c0392b" opacity="0.85"/><circle cx="559.2" cy="89.0" r="2.6" fill="#c0392b" opacity="0.85"/><circle cx="564.3" cy="89.0" r="2.6" fill="#c0392b" opacity="0.85"/><circle cx="569.3" cy="89.0" r="2.6" fill="#c0392b" opacity="0.85"/><circle cx="574.4" cy="89.0" r="2.6" fill="#c0392b" opacity="0.85"/><circle cx="579.5" cy="89.0" r="2.6" fill="#c0392b" opacity="0.85"/><circle cx="584.5" cy="89.0" r="2.6" fill="#c0392b" opacity="0.85"/><circle cx="589.6" cy="89.0" r="2.6" fill="#c0392b" opacity="0.85"/><circle cx="594.7" cy="89.0" r="2.6" fill="#c0392b" opacity="0.85"/><circle cx="599.8" cy="89.0" r="2.6" fill="#c0392b" opacity="0.85"/><circle cx="604.8" cy="89.0" r="2.6" fill="#c0392b" opacity="0.85"/><circle cx="609.9" cy="89.0" r="2.6" fill="#c0392b" opacity="0.85"/><circle cx="615.0" cy="89.0" r="2.6" fill="#c0392b" opacity="0.85"/><circle cx="620.0" cy="88.3" r="2.6" fill="#c0392b" opacity="0.85"/><circle cx="625.1" cy="88.3" r="2.6" fill="#c0392b" opacity="0.85"/><circle cx="630.2" cy="88.3" r="2.6" fill="#c0392b" opacity="0.85"/><circle cx="635.2" cy="88.3" r="2.6" fill="#c0392b" opacity="0.85"/><circle cx="640.3" cy="88.3" r="2.6" fill="#c0392b" opacity="0.85"/><circle cx="645.4" cy="88.3" r="2.6" fill="#c0392b" opacity="0.85"/><circle cx="650.5" cy="88.3" r="2.6" fill="#c0392b" opacity="0.85"/><circle cx="655.5" cy="88.3" r="2.6" fill="#c0392b" opacity="0.85"/><circle cx="660.6" cy="88.3" r="2.6" fill="#c0392b" opacity="0.85"/><circle cx="665.7" cy="88.3" r="2.6" fill="#c0392b" opacity="0.85"/><circle cx="670.7" cy="88.3" r="2.6" fill="#c0392b" opacity="0.85"/><circle cx="675.8" cy="88.3" r="2.6" fill="#c0392b" opacity="0.85"/><circle cx="680.9" cy="88.3" r="2.6" fill="#c0392b" opacity="0.85"/><circle cx="685.9" cy="88.3" r="2.6" fill="#c0392b" opacity="0.85"/><circle cx="691.0" cy="88.3" r="2.6" fill="#c0392b" opacity="0.85"/><circle cx="696.1" cy="88.3" r="2.6" fill="#c0392b" opacity="0.85"/><circle cx="701.1" cy="87.8" r="2.6" fill="#c0392b" opacity="0.85"/><circle cx="706.2" cy="87.8" r="2.6" fill="#c0392b" opacity="0.85"/><circle cx="711.3" cy="87.8" r="2.6" fill="#c0392b" opacity="0.85"/><circle cx="716.4" cy="87.8" r="2.6" fill="#c0392b" opacity="0.85"/><circle cx="721.4" cy="87.8" r="2.6" fill="#c0392b" opacity="0.85"/><circle cx="726.5" cy="87.8" r="2.6" fill="#c0392b" opacity="0.85"/><circle cx="731.6" cy="87.8" r="2.6" fill="#c0392b" opacity="0.85"/><circle cx="736.6" cy="87.8" r="2.6" fill="#c0392b" opacity="0.85"/><circle cx="741.7" cy="87.8" r="2.6" fill="#c0392b" opacity="0.85"/><circle cx="746.8" cy="87.8" r="2.6" fill="#c0392b" opacity="0.85"/><circle cx="751.8" cy="87.8" r="2.6" fill="#c0392b" opacity="0.85"/><circle cx="756.9" cy="87.8" r="2.6" fill="#c0392b" opacity="0.85"/><circle cx="762.0" cy="87.8" r="2.6" fill="#c0392b" opacity="0.85"/><circle cx="767.0" cy="87.8" r="2.6" fill="#c0392b" opacity="0.85"/><circle cx="772.1" cy="87.8" r="2.6" fill="#c0392b" opacity="0.85"/><circle cx="777.2" cy="87.8" r="2.6" fill="#c0392b" opacity="0.85"/><circle cx="782.3" cy="87.3" r="2.6" fill="#c0392b" opacity="0.85"/><circle cx="787.3" cy="87.3" r="2.6" fill="#c0392b" opacity="0.85"/><circle cx="792.4" cy="87.3" r="2.6" fill="#c0392b" opacity="0.85"/><circle cx="797.5" cy="87.3" r="2.6" fill="#c0392b" opacity="0.85"/><circle cx="250.0" cy="62.0" r="4" fill="#c0392b"/><text x="259.0" y="66.0" font-size="10" fill="#333">COLLOCATED (2Δ central)</text><circle cx="72.5" cy="334.0" r="2.6" fill="#2471a3" opacity="0.85"/><circle cx="77.6" cy="94.7" r="2.6" fill="#2471a3" opacity="0.85"/><circle cx="82.7" cy="94.7" r="2.6" fill="#2471a3" opacity="0.85"/><circle cx="87.7" cy="94.7" r="2.6" fill="#2471a3" opacity="0.85"/><circle cx="92.8" cy="94.7" r="2.6" fill="#2471a3" opacity="0.85"/><circle cx="97.9" cy="92.2" r="2.6" fill="#2471a3" opacity="0.85"/><circle cx="103.0" cy="92.2" r="2.6" fill="#2471a3" opacity="0.85"/><circle cx="108.0" cy="92.2" r="2.6" fill="#2471a3" opacity="0.85"/><circle cx="113.1" cy="92.2" r="2.6" fill="#2471a3" opacity="0.85"/><circle cx="118.2" cy="89.8" r="2.6" fill="#2471a3" opacity="0.85"/><circle cx="123.2" cy="89.8" r="2.6" fill="#2471a3" opacity="0.85"/><circle cx="128.3" cy="89.8" r="2.6" fill="#2471a3" opacity="0.85"/><circle cx="133.4" cy="89.8" r="2.6" fill="#2471a3" opacity="0.85"/><circle cx="138.4" cy="89.0" r="2.6" fill="#2471a3" opacity="0.85"/><circle cx="143.5" cy="89.0" r="2.6" fill="#2471a3" opacity="0.85"/><circle cx="148.6" cy="89.0" r="2.6" fill="#2471a3" opacity="0.85"/><circle cx="153.6" cy="89.0" r="2.6" fill="#2471a3" opacity="0.85"/><circle cx="158.7" cy="89.0" r="2.6" fill="#2471a3" opacity="0.85"/><circle cx="163.8" cy="89.0" r="2.6" fill="#2471a3" opacity="0.85"/><circle cx="168.9" cy="89.0" r="2.6" fill="#2471a3" opacity="0.85"/><circle cx="173.9" cy="89.0" r="2.6" fill="#2471a3" opacity="0.85"/><circle cx="179.0" cy="87.3" r="2.6" fill="#2471a3" opacity="0.85"/><circle cx="184.1" cy="87.3" r="2.6" fill="#2471a3" opacity="0.85"/><circle cx="189.1" cy="87.3" r="2.6" fill="#2471a3" opacity="0.85"/><circle cx="194.2" cy="87.3" r="2.6" fill="#2471a3" opacity="0.85"/><circle cx="199.3" cy="87.3" r="2.6" fill="#2471a3" opacity="0.85"/><circle cx="204.3" cy="87.3" r="2.6" fill="#2471a3" opacity="0.85"/><circle cx="209.4" cy="87.3" r="2.6" fill="#2471a3" opacity="0.85"/><circle cx="214.5" cy="87.3" r="2.6" fill="#2471a3" opacity="0.85"/><circle cx="219.5" cy="86.8" r="2.6" fill="#2471a3" opacity="0.85"/><circle cx="224.6" cy="86.8" r="2.6" fill="#2471a3" opacity="0.85"/><circle cx="229.7" cy="86.8" r="2.6" fill="#2471a3" opacity="0.85"/><circle cx="234.8" cy="86.8" r="2.6" fill="#2471a3" opacity="0.85"/><circle cx="239.8" cy="86.8" r="2.6" fill="#2471a3" opacity="0.85"/><circle cx="244.9" cy="86.8" r="2.6" fill="#2471a3" opacity="0.85"/><circle cx="250.0" cy="86.8" r="2.6" fill="#2471a3" opacity="0.85"/><circle cx="255.0" cy="86.8" r="2.6" fill="#2471a3" opacity="0.85"/><circle cx="260.1" cy="85.8" r="2.6" fill="#2471a3" opacity="0.85"/><circle cx="265.2" cy="85.8" r="2.6" fill="#2471a3" opacity="0.85"/><circle cx="270.2" cy="85.8" r="2.6" fill="#2471a3" opacity="0.85"/><circle cx="275.3" cy="85.8" r="2.6" fill="#2471a3" opacity="0.85"/><circle cx="280.4" cy="85.8" r="2.6" fill="#2471a3" opacity="0.85"/><circle cx="285.5" cy="85.8" r="2.6" fill="#2471a3" opacity="0.85"/><circle cx="290.5" cy="85.8" r="2.6" fill="#2471a3" opacity="0.85"/><circle cx="295.6" cy="85.8" r="2.6" fill="#2471a3" opacity="0.85"/><circle cx="300.7" cy="85.8" r="2.6" fill="#2471a3" opacity="0.85"/><circle cx="305.7" cy="85.8" r="2.6" fill="#2471a3" opacity="0.85"/><circle cx="310.8" cy="85.8" r="2.6" fill="#2471a3" opacity="0.85"/><circle cx="315.9" cy="85.8" r="2.6" fill="#2471a3" opacity="0.85"/><circle cx="320.9" cy="85.5" r="2.6" fill="#2471a3" opacity="0.85"/><circle cx="326.0" cy="85.5" r="2.6" fill="#2471a3" opacity="0.85"/><circle cx="331.1" cy="85.5" r="2.6" fill="#2471a3" opacity="0.85"/><circle cx="336.1" cy="85.5" r="2.6" fill="#2471a3" opacity="0.85"/><circle cx="341.2" cy="85.5" r="2.6" fill="#2471a3" opacity="0.85"/><circle cx="346.3" cy="85.5" r="2.6" fill="#2471a3" opacity="0.85"/><circle cx="351.4" cy="85.5" r="2.6" fill="#2471a3" opacity="0.85"/><circle cx="356.4" cy="85.5" r="2.6" fill="#2471a3" opacity="0.85"/><circle cx="361.5" cy="85.0" r="2.6" fill="#2471a3" opacity="0.85"/><circle cx="366.6" cy="85.0" r="2.6" fill="#2471a3" opacity="0.85"/><circle cx="371.6" cy="85.0" r="2.6" fill="#2471a3" opacity="0.85"/><circle cx="376.7" cy="85.0" r="2.6" fill="#2471a3" opacity="0.85"/><circle cx="381.8" cy="84.7" r="2.6" fill="#2471a3" opacity="0.85"/><circle cx="386.8" cy="84.7" r="2.6" fill="#2471a3" opacity="0.85"/><circle cx="391.9" cy="84.7" r="2.6" fill="#2471a3" opacity="0.85"/><circle cx="397.0" cy="84.7" r="2.6" fill="#2471a3" opacity="0.85"/><circle cx="402.0" cy="84.7" r="2.6" fill="#2471a3" opacity="0.85"/><circle cx="407.1" cy="84.7" r="2.6" fill="#2471a3" opacity="0.85"/><circle cx="412.2" cy="84.7" r="2.6" fill="#2471a3" opacity="0.85"/><circle cx="417.3" cy="84.7" r="2.6" fill="#2471a3" opacity="0.85"/><circle cx="422.3" cy="84.7" r="2.6" fill="#2471a3" opacity="0.85"/><circle cx="427.4" cy="84.7" r="2.6" fill="#2471a3" opacity="0.85"/><circle cx="432.5" cy="84.7" r="2.6" fill="#2471a3" opacity="0.85"/><circle cx="437.5" cy="84.7" r="2.6" fill="#2471a3" opacity="0.85"/><circle cx="442.6" cy="84.7" r="2.6" fill="#2471a3" opacity="0.85"/><circle cx="447.7" cy="84.7" r="2.6" fill="#2471a3" opacity="0.85"/><circle cx="452.7" cy="84.7" r="2.6" fill="#2471a3" opacity="0.85"/><circle cx="457.8" cy="84.7" r="2.6" fill="#2471a3" opacity="0.85"/><circle cx="462.9" cy="84.7" r="2.6" fill="#2471a3" opacity="0.85"/><circle cx="468.0" cy="84.7" r="2.6" fill="#2471a3" opacity="0.85"/><circle cx="473.0" cy="84.7" r="2.6" fill="#2471a3" opacity="0.85"/><circle cx="478.1" cy="84.7" r="2.6" fill="#2471a3" opacity="0.85"/><circle cx="483.2" cy="84.7" r="2.6" fill="#2471a3" opacity="0.85"/><circle cx="488.2" cy="84.7" r="2.6" fill="#2471a3" opacity="0.85"/><circle cx="493.3" cy="84.5" r="2.6" fill="#2471a3" opacity="0.85"/><circle cx="498.4" cy="84.5" r="2.6" fill="#2471a3" opacity="0.85"/><circle cx="503.4" cy="84.5" r="2.6" fill="#2471a3" opacity="0.85"/><circle cx="508.5" cy="84.5" r="2.6" fill="#2471a3" opacity="0.85"/><circle cx="513.6" cy="84.1" r="2.6" fill="#2471a3" opacity="0.85"/><circle cx="518.6" cy="84.1" r="2.6" fill="#2471a3" opacity="0.85"/><circle cx="523.7" cy="84.1" r="2.6" fill="#2471a3" opacity="0.85"/><circle cx="528.8" cy="84.1" r="2.6" fill="#2471a3" opacity="0.85"/><circle cx="533.9" cy="84.1" r="2.6" fill="#2471a3" opacity="0.85"/><circle cx="538.9" cy="84.1" r="2.6" fill="#2471a3" opacity="0.85"/><circle cx="544.0" cy="84.1" r="2.6" fill="#2471a3" opacity="0.85"/><circle cx="549.1" cy="84.1" r="2.6" fill="#2471a3" opacity="0.85"/><circle cx="554.1" cy="83.9" r="2.6" fill="#2471a3" opacity="0.85"/><circle cx="559.2" cy="83.9" r="2.6" fill="#2471a3" opacity="0.85"/><circle cx="564.3" cy="83.9" r="2.6" fill="#2471a3" opacity="0.85"/><circle cx="569.3" cy="83.9" r="2.6" fill="#2471a3" opacity="0.85"/><circle cx="574.4" cy="83.9" r="2.6" fill="#2471a3" opacity="0.85"/><circle cx="579.5" cy="83.9" r="2.6" fill="#2471a3" opacity="0.85"/><circle cx="584.5" cy="83.9" r="2.6" fill="#2471a3" opacity="0.85"/><circle cx="589.6" cy="83.9" r="2.6" fill="#2471a3" opacity="0.85"/><circle cx="594.7" cy="83.9" r="2.6" fill="#2471a3" opacity="0.85"/><circle cx="599.8" cy="83.9" r="2.6" fill="#2471a3" opacity="0.85"/><circle cx="604.8" cy="83.9" r="2.6" fill="#2471a3" opacity="0.85"/><circle cx="609.9" cy="83.9" r="2.6" fill="#2471a3" opacity="0.85"/><circle cx="615.0" cy="83.4" r="2.6" fill="#2471a3" opacity="0.85"/><circle cx="620.0" cy="83.4" r="2.6" fill="#2471a3" opacity="0.85"/><circle cx="625.1" cy="83.4" r="2.6" fill="#2471a3" opacity="0.85"/><circle cx="630.2" cy="83.4" r="2.6" fill="#2471a3" opacity="0.85"/><circle cx="635.2" cy="83.4" r="2.6" fill="#2471a3" opacity="0.85"/><circle cx="640.3" cy="83.4" r="2.6" fill="#2471a3" opacity="0.85"/><circle cx="645.4" cy="83.4" r="2.6" fill="#2471a3" opacity="0.85"/><circle cx="650.5" cy="83.4" r="2.6" fill="#2471a3" opacity="0.85"/><circle cx="655.5" cy="83.2" r="2.6" fill="#2471a3" opacity="0.85"/><circle cx="660.6" cy="83.2" r="2.6" fill="#2471a3" opacity="0.85"/><circle cx="665.7" cy="83.2" r="2.6" fill="#2471a3" opacity="0.85"/><circle cx="670.7" cy="83.2" r="2.6" fill="#2471a3" opacity="0.85"/><circle cx="675.8" cy="83.2" r="2.6" fill="#2471a3" opacity="0.85"/><circle cx="680.9" cy="83.2" r="2.6" fill="#2471a3" opacity="0.85"/><circle cx="685.9" cy="83.2" r="2.6" fill="#2471a3" opacity="0.85"/><circle cx="691.0" cy="83.2" r="2.6" fill="#2471a3" opacity="0.85"/><circle cx="696.1" cy="82.8" r="2.6" fill="#2471a3" opacity="0.85"/><circle cx="701.1" cy="82.8" r="2.6" fill="#2471a3" opacity="0.85"/><circle cx="706.2" cy="82.8" r="2.6" fill="#2471a3" opacity="0.85"/><circle cx="711.3" cy="82.8" r="2.6" fill="#2471a3" opacity="0.85"/><circle cx="716.4" cy="82.8" r="2.6" fill="#2471a3" opacity="0.85"/><circle cx="721.4" cy="82.8" r="2.6" fill="#2471a3" opacity="0.85"/><circle cx="726.5" cy="82.8" r="2.6" fill="#2471a3" opacity="0.85"/><circle cx="731.6" cy="82.8" r="2.6" fill="#2471a3" opacity="0.85"/><circle cx="736.6" cy="82.6" r="2.6" fill="#2471a3" opacity="0.85"/><circle cx="741.7" cy="82.6" r="2.6" fill="#2471a3" opacity="0.85"/><circle cx="746.8" cy="82.6" r="2.6" fill="#2471a3" opacity="0.85"/><circle cx="751.8" cy="82.6" r="2.6" fill="#2471a3" opacity="0.85"/><circle cx="756.9" cy="82.4" r="2.6" fill="#2471a3" opacity="0.85"/><circle cx="762.0" cy="82.4" r="2.6" fill="#2471a3" opacity="0.85"/><circle cx="767.0" cy="82.4" r="2.6" fill="#2471a3" opacity="0.85"/><circle cx="772.1" cy="82.4" r="2.6" fill="#2471a3" opacity="0.85"/><circle cx="777.2" cy="82.3" r="2.6" fill="#2471a3" opacity="0.85"/><circle cx="782.3" cy="82.3" r="2.6" fill="#2471a3" opacity="0.85"/><circle cx="787.3" cy="82.3" r="2.6" fill="#2471a3" opacity="0.85"/><circle cx="792.4" cy="82.3" r="2.6" fill="#2471a3" opacity="0.85"/><circle cx="797.5" cy="82.1" r="2.6" fill="#2471a3" opacity="0.85"/><circle cx="440.0" cy="62.0" r="4" fill="#2471a3"/><text x="449.0" y="66.0" font-size="10" fill="#333">STAGGERED (flux on face)</text><text x="435.0" y="366.0" font-size="10" fill="#777" text-anchor="middle">eigenvalue index (ascending |λ|)</text>
<text x="16" y="204.0" font-size="10" fill="#777" transform="rotate(-90 16 204.0)" text-anchor="middle">|λ|  (log)</text>
</svg>
